<?xml version="1.0" encoding="UTF-8" standalone="no"?>
<!-- Created with Inkscape (http://www.inkscape.org/) -->

<svg
   xmlns:dc="http://purl.org/dc/elements/1.1/"
   xmlns:cc="http://creativecommons.org/ns#"
   xmlns:rdf="http://www.w3.org/1999/02/22-rdf-syntax-ns#"
   xmlns:svg="http://www.w3.org/2000/svg"
   xmlns="http://www.w3.org/2000/svg"
   version="1.0"
   width="678.90002"
   height="294.35999"
   id="svg2985">
  <defs
     id="defs2987" />
  <metadata
     id="metadata2989">
    <rdf:RDF>
      <cc:Work
         rdf:about="">
        <dc:format>image/svg+xml</dc:format>
        <dc:type
           rdf:resource="http://purl.org/dc/dcmitype/StillImage" />
        <dc:title></dc:title>
      </cc:Work>
    </rdf:RDF>
  </metadata>
  <g
     transform="translate(-59.550198,-192.36218)"
     id="g2991">
    <g
       transform="translate(200.59629,41.669734)"
       id="g2993"
       style="fill-rule:evenodd">
      <path
         d="m 339.41,223.97 c 0,0 -18.29,18.5 -57.79,57.78 l 1.13,1.13 c 39.49,-39.29 57.78,-57.79 57.78,-57.79 l -1.12,-1.12 z"
         id="path2995"
         style="fill:#000000" />
      <path
         d="m 293.38,271.17 0.02,-8.93 -11.22,20.07 20.13,-11.11 -8.93,-0.03 z"
         id="path2997"
         style="stroke:#000000;stroke-width:1.26365767pt;marker-start:none" />
    </g>
    <g
       transform="matrix(0.9208416,-0.3899369,0.3899369,0.9208416,-112.90341,201.21479)"
       id="g2999"
       style="fill-rule:evenodd">
      <path
         d="m 384.75,365.5 -1.13,1.12 c 39.5,39.29 57.79,57.79 57.79,57.79 l 1.12,-1.1 c 0,0 -18.29,-18.53 -57.78,-57.81 z"
         id="path3001"
         style="fill:#000000" />
      <path
         d="m 395.38,377.21 8.94,-0.02 -20.14,-11.12 11.23,20.08 -0.03,-8.94 z"
         id="path3003"
         style="stroke:#000000;stroke-width:1.26365767pt;marker-start:none" />
    </g>
    <text
       x="348.99002"
       y="242.76318"
       id="text3005"
       xml:space="preserve"
       style="font-size:28px;font-style:normal;font-variant:normal;font-weight:normal;font-stretch:normal;text-align:start;line-height:100%;writing-mode:lr-tb;text-anchor:start;fill:#000000;font-family:Bookman Old Style"><tspan
         x="348.99002"
         y="242.76318"
         id="tspan3007">crest</tspan></text>
    <text
       x="470.82465"
       y="425.80972"
       id="text3009"
       xml:space="preserve"
       style="font-size:28px;font-style:normal;font-variant:normal;font-weight:normal;font-stretch:normal;text-align:start;line-height:100%;writing-mode:lr-tb;text-anchor:start;fill:#000000;font-family:Bookman Old Style"><tspan
         x="470.82465"
         y="425.80972"
         id="tspan3011">trough</tspan></text>
    <g
       transform="translate(0.1657986,18.999997)"
       id="g3013"
       style="fill-rule:evenodd">
      <path
         d="m 339.41,223.97 c 0,0 -18.29,18.5 -57.79,57.78 l 1.13,1.13 c 39.49,-39.29 57.78,-57.79 57.78,-57.79 l -1.12,-1.12 z"
         id="path3015"
         style="fill:#000000" />
      <path
         d="m 293.38,271.17 0.02,-8.93 -11.22,20.07 20.13,-11.11 -8.93,-0.03 z"
         id="path3017"
         style="stroke:#000000;stroke-width:1.26365767pt;marker-start:none" />
    </g>
    <g
       transform="translate(-99.519463,-3.142618)"
       id="g3019"
       style="fill:#ff0000;fill-rule:evenodd">
      <path
         d="m 471.06,433.84 c 0,0 -57.54,0.3 -180.74,0.47 l -0.02,1.59 c 123.21,-0.17 180.75,-0.47 180.75,-0.47 l 0.01,-1.59 z"
         id="path3021"
         style="fill-opacity:0.98591548" />
      <path
         d="m 295.75,435.16 6.51,-6.3 -22.71,6.24 22.66,6.4 -6.46,-6.34 z"
         id="path3023"
         style="marker-start:none" />
      <path
         d="m 463.04,435.31 -6.58,-6.22 22.78,5.99 -22.59,6.64 6.39,-6.41 z"
         id="path3025"
         style="marker-start:none" />
    </g>
    <text
       x="204.31642"
       y="464.29758"
       id="text3027"
       xml:space="preserve"
       style="font-size:28px;font-style:normal;font-variant:normal;font-weight:normal;font-stretch:normal;text-align:start;line-height:100%;writing-mode:lr-tb;text-anchor:start;fill:#000000;font-family:Bookman Old Style"><tspan
         x="204.31642"
         y="464.29758"
         id="tspan3029">wavelength</tspan></text>
    <path
       d="m 480.72,344.72 c 0,0 -0.3,-12.09 -0.47,-37.99 l -1.59,-0.01 c 0.17,25.9 0.46,38 0.46,38 h 1.6 z"
       id="path3031"
       style="fill:#ff0000;fill-opacity:0.98591548;fill-rule:evenodd" />
    <path
       d="m 81.002,307.01 c 0.968,0 1.936,0.05 2.903,0.16 0.968,0.11 1.936,0.27 2.903,0.49 0.968,0.21 1.936,0.48 2.903,0.8 0.968,0.32 1.935,0.69 2.903,1.11 0.968,0.43 1.935,0.9 2.903,1.42 0.968,0.52 1.935,1.09 2.903,1.71 0.968,0.61 1.94,1.28 2.9,1.98 0.97,0.71 1.94,1.46 2.91,2.25 0.96,0.79 1.93,1.61 2.9,2.48 0.97,0.87 1.93,1.77 2.9,2.71 0.97,0.93 1.94,1.9 2.9,2.9 0.97,1 1.94,2.02 2.91,3.07 0.97,1.06 1.93,2.13 2.9,3.23 0.97,1.09 1.94,2.21 2.9,3.34 0.97,1.13 1.94,2.28 2.91,3.44 0.96,1.15 1.93,2.32 2.9,3.5 0.97,1.17 1.93,2.35 2.9,3.53 0.97,1.18 1.94,2.36 2.91,3.54 0.96,1.18 1.93,2.35 2.9,3.52 0.97,1.16 1.93,2.32 2.9,3.46 0.97,1.14 1.94,2.27 2.9,3.37 0.97,1.11 1.94,2.2 2.91,3.27 0.96,1.07 1.93,2.11 2.9,3.13 0.97,1.02 1.94,2 2.9,2.96 0.97,0.96 1.94,1.88 2.91,2.78 0.96,0.89 1.93,1.74 2.9,2.56 0.97,0.81 1.93,1.59 2.9,2.32 0.97,0.74 1.94,1.43 2.9,2.07 0.97,0.65 1.94,1.25 2.91,1.81 0.97,0.55 1.93,1.06 2.9,1.51 0.97,0.46 1.94,0.86 2.9,1.22 0.97,0.35 1.94,0.66 2.91,0.91 0.96,0.25 1.93,0.44 2.9,0.59 0.97,0.14 1.93,0.23 2.9,0.27 0.97,0.03 1.94,0.02 2.91,-0.06 0.96,-0.07 1.93,-0.19 2.9,-0.37 0.97,-0.18 1.93,-0.42 2.9,-0.7 0.97,-0.29 1.94,-0.62 2.9,-1.01 0.97,-0.39 1.94,-0.83 2.91,-1.32 0.96,-0.49 1.93,-1.03 2.9,-1.61 0.97,-0.59 1.93,-1.22 2.9,-1.9 0.97,-0.67 1.94,-1.39 2.91,-2.16 0.96,-0.76 1.93,-1.56 2.9,-2.4 0.97,-0.84 1.93,-1.72 2.9,-2.64 0.97,-0.91 1.94,-1.86 2.9,-2.84 0.97,-0.97 1.94,-1.98 2.91,-3.02 0.96,-1.03 1.93,-2.09 2.9,-3.17 0.97,-1.09 1.94,-2.19 2.9,-3.31 0.97,-1.12 1.94,-2.26 2.91,-3.41 0.96,-1.15 1.93,-2.31 2.9,-3.48 0.97,-1.17 1.93,-2.35 2.9,-3.53 0.97,-1.18 1.94,-2.36 2.9,-3.54 0.97,-1.18 1.94,-2.36 2.91,-3.52 0.97,-1.17 1.93,-2.34 2.9,-3.49 0.97,-1.15 1.94,-2.28 2.9,-3.41 0.97,-1.12 1.94,-2.22 2.91,-3.3 0.96,-1.08 1.93,-2.14 2.9,-3.18 0.97,-1.03 1.93,-2.04 2.9,-3.02 0.97,-0.98 1.94,-1.93 2.91,-2.84 0.96,-0.91 1.93,-1.79 2.9,-2.63 0.97,-0.84 1.93,-1.65 2.9,-2.41 0.97,-0.76 1.94,-1.48 2.9,-2.16 0.97,-0.68 1.94,-1.31 2.91,-1.89 0.96,-0.59 1.93,-1.13 2.9,-1.62 0.97,-0.48 1.94,-0.92 2.9,-1.31 0.97,-0.39 1.94,-0.73 2.91,-1.01 0.96,-0.29 1.93,-0.52 2.9,-0.7 0.97,-0.18 1.93,-0.31 2.9,-0.38 0.97,-0.07 1.94,-0.09 2.9,-0.05 0.97,0.03 1.94,0.12 2.91,0.27 0.97,0.14 1.93,0.34 2.9,0.59 0.97,0.25 1.94,0.55 2.9,0.91 0.97,0.35 1.94,0.76 2.91,1.21 0.96,0.46 1.93,0.96 2.9,1.52 0.97,0.55 1.93,1.15 2.9,1.8 0.97,0.65 1.94,1.34 2.91,2.07 0.96,0.74 1.93,1.51 2.9,2.33 0.97,0.81 1.93,1.67 2.9,2.56 0.97,0.89 1.94,1.82 2.9,2.77 0.97,0.96 1.94,1.95 2.91,2.97 0.96,1.01 1.93,2.06 2.9,3.12 0.97,1.07 1.94,2.16 2.9,3.27 0.97,1.11 1.94,2.24 2.91,3.38 0.96,1.14 1.93,2.29 2.9,3.46 0.97,1.16 1.93,2.34 2.9,3.51 0.97,1.18 1.94,2.36 2.9,3.54 0.97,1.18 1.94,2.36 2.91,3.54 0.97,1.17 1.93,2.34 2.9,3.5 0.97,1.15 1.94,2.3 2.9,3.43 0.97,1.14 1.94,2.25 2.91,3.35 0.96,1.09 1.93,2.17 2.9,3.22 0.97,1.05 1.93,2.08 2.9,3.08 0.97,0.99 1.94,1.96 2.91,2.9 0.96,0.93 1.93,1.84 2.9,2.7 0.97,0.87 1.93,1.7 2.9,2.49 0.97,0.79 1.94,1.54 2.9,2.24 0.97,0.71 1.94,1.37 2.91,1.99 0.96,0.61 1.93,1.18 2.9,1.7 0.97,0.53 1.94,1 2.9,1.42 0.97,0.42 1.94,0.8 2.91,1.12 0.96,0.32 1.93,0.58 2.9,0.8 0.97,0.21 1.93,0.38 2.9,0.48 0.97,0.11 1.94,0.17 2.9,0.17 0.97,0 1.94,-0.06 2.91,-0.17 0.97,-0.1 1.93,-0.27 2.9,-0.48 0.97,-0.22 1.94,-0.48 2.9,-0.8 0.97,-0.32 1.94,-0.7 2.91,-1.12 0.96,-0.42 1.93,-0.89 2.9,-1.42 0.97,-0.52 1.93,-1.09 2.9,-1.7 0.97,-0.62 1.94,-1.28 2.9,-1.99 0.97,-0.7 1.94,-1.45 2.91,-2.24 0.97,-0.79 1.93,-1.62 2.9,-2.49 0.97,-0.86 1.94,-1.77 2.9,-2.7 0.97,-0.94 1.94,-1.91 2.91,-2.9 0.96,-1 1.93,-2.03 2.9,-3.08 0.97,-1.05 1.93,-2.13 2.9,-3.22 0.97,-1.1 1.94,-2.21 2.91,-3.35 0.96,-1.13 1.93,-2.28 2.9,-3.43 0.97,-1.16 1.93,-2.33 2.9,-3.5 0.97,-1.18 1.94,-2.36 2.9,-3.54 0.97,-1.18 1.94,-2.36 2.91,-3.54 0.96,-1.17 1.93,-2.35 2.9,-3.51 0.97,-1.17 1.94,-2.32 2.9,-3.46 0.97,-1.14 1.94,-2.27 2.91,-3.38 0.96,-1.11 1.93,-2.2 2.9,-3.27 0.97,-1.06 1.93,-2.11 2.9,-3.12 0.97,-1.02 1.94,-2.01 2.9,-2.97 0.97,-0.95 1.94,-1.88 2.91,-2.77 0.97,-0.89 1.93,-1.75 2.9,-2.56 0.97,-0.82 1.94,-1.59 2.9,-2.33 0.97,-0.73 1.94,-1.42 2.91,-2.07 0.96,-0.65 1.93,-1.25 2.9,-1.8 0.97,-0.56 1.93,-1.06 2.9,-1.52 0.97,-0.45 1.94,-0.86 2.91,-1.21 0.96,-0.36 1.93,-0.66 2.9,-0.91 0.97,-0.25 1.93,-0.45 2.9,-0.59 0.97,-0.15 1.94,-0.24 2.9,-0.27 0.97,-0.04 1.94,-0.02 2.91,0.05 0.96,0.07 1.93,0.2 2.9,0.38 0.97,0.18 1.94,0.41 2.9,0.7 0.97,0.28 1.94,0.62 2.91,1.01 0.96,0.39 1.93,0.83 2.9,1.31 0.97,0.49 1.93,1.03 2.9,1.62 0.97,0.58 1.94,1.21 2.9,1.89 0.97,0.68 1.94,1.4 2.91,2.16 0.97,0.76 1.93,1.57 2.9,2.41 0.97,0.84 1.94,1.72 2.9,2.63 0.97,0.91 1.94,1.86 2.91,2.84 0.96,0.98 1.93,1.99 2.9,3.02 0.97,1.04 1.93,2.1 2.9,3.18 0.97,1.08 1.94,2.18 2.91,3.3 0.96,1.13 1.93,2.26 2.9,3.41 0.97,1.15 1.93,2.32 2.9,3.49 0.97,1.16 1.94,2.34 2.9,3.52 0.97,1.18 1.94,2.36 2.91,3.54 0.96,1.18 1.93,2.36 2.9,3.53 0.97,1.17 1.94,2.33 2.9,3.48 0.97,1.15 1.94,2.29 2.91,3.41 0.96,1.12 1.93,2.22 2.9,3.31 0.97,1.08 1.93,2.14 2.9,3.17 0.97,1.04 1.94,2.05 2.9,3.02 0.97,0.98 1.94,1.93 2.91,2.84 0.97,0.92 1.93,1.8 2.9,2.64 0.97,0.84 1.94,1.64 2.9,2.4 0.97,0.77 1.94,1.49 2.91,2.16 0.96,0.68 1.93,1.31 2.9,1.9 0.97,0.58 1.93,1.12 2.9,1.61 0.97,0.49 1.94,0.93 2.91,1.32 0.96,0.39 1.93,0.72 2.9,1.01 0.97,0.28 1.93,0.52 2.9,0.7 0.97,0.18 1.94,0.3 2.9,0.37 0.97,0.08 1.94,0.09 2.91,0.06 0.96,-0.04 1.93,-0.13 2.9,-0.27 0.97,-0.15 1.94,-0.34 2.9,-0.59 0.97,-0.25 1.94,-0.56 2.91,-0.91 0.96,-0.36 1.93,-0.76 2.9,-1.22 0.97,-0.45 1.93,-0.96 2.9,-1.51 0.97,-0.56 1.94,-1.16 2.9,-1.81 0.97,-0.64 1.94,-1.33 2.91,-2.07 0.96,-0.73 1.93,-1.51 2.9,-2.32 0.97,-0.82 1.94,-1.67 2.9,-2.56 0.97,-0.89 1.94,-1.82 2.91,-2.78 0.96,-0.96 1.93,-1.94 2.9,-2.96 0.97,-1.02 1.93,-2.06 2.9,-3.13 0.97,-1.07 1.94,-2.16 2.9,-3.27 0.97,-1.1 1.94,-2.23 2.91,-3.37 0.97,-1.14 1.93,-2.3 2.9,-3.46 0.97,-1.17 1.94,-2.34 2.9,-3.52 0.97,-1.18 1.94,-2.36 2.91,-3.54 0.96,-1.18 1.93,-2.36 2.9,-3.53 0.97,-1.18 1.93,-2.35 2.9,-3.5 0.97,-1.16 1.94,-2.31 2.91,-3.44 0.96,-1.13 1.93,-2.25 2.9,-3.34 0.97,-1.1 1.93,-2.17 2.9,-3.23 0.97,-1.05 1.94,-2.07 2.9,-3.07 0.97,-1 1.94,-1.97 2.91,-2.9 0.96,-0.94 1.93,-1.84 2.9,-2.71 0.97,-0.87 1.94,-1.69 2.9,-2.48 0.97,-0.79 1.94,-1.54 2.91,-2.25 0.96,-0.7 1.93,-1.37 2.9,-1.98 0.97,-0.62 1.93,-1.19 2.9,-1.71 0.97,-0.52 1.94,-0.99 2.9,-1.42 0.97,-0.42 1.94,-0.79 2.91,-1.11 0.97,-0.32 1.93,-0.59 2.9,-0.8 0.97,-0.22 1.94,-0.38 2.9,-0.49 0.97,-0.11 1.94,-0.16 2.91,-0.16"
       id="path3033"
       style="fill-opacity:0;stroke:#019ffc;stroke-width:2.57277203;stroke-linecap:butt;stroke-linejoin:miter;stroke-miterlimit:4;stroke-dasharray:none;stroke-dashoffset:48.99999211" />
    <g
       transform="translate(0.1657986,18.999997)"
       id="g3035"
       style="fill-rule:evenodd">
      <path
         d="m 79.55,326.72 c 0,0 200.32,-0.15 629.21,0 v -1.59 c -428.93,-0.15 -629.21,0 -629.21,0 v 1.59 z"
         id="path3037"
         style="fill:#000000" />
      <path
         d="m 697.98,326.14 -6.15,6.3 21.47,-6.26 -21.44,-6.38 6.12,6.34 z"
         id="path3039"
         style="stroke:#000000;stroke-width:1.24497604pt;marker-start:none" />
    </g>
    <text
       x="708.84119"
       y="371.02521"
       id="text3041"
       xml:space="preserve"
       style="font-size:28px;font-style:normal;font-variant:normal;font-weight:normal;font-stretch:normal;text-align:start;line-height:100%;writing-mode:lr-tb;text-anchor:start;fill:#000000;font-family:Bookman Old Style"><tspan
         x="708.84119"
         y="371.02521"
         id="tspan3043">x</tspan></text>
    <text
       x="550.52777"
       y="268.96042"
       id="text3045"
       xml:space="preserve"
       style="font-size:28px;font-style:normal;font-variant:normal;font-weight:normal;font-stretch:normal;text-align:start;line-height:100%;writing-mode:lr-tb;text-anchor:start;fill:#000000;font-family:Bookman Old Style"><tspan
         x="550.52777"
         y="268.96042"
         id="tspan3047">amplitude</tspan></text>
    <g
       transform="translate(162.6178,119.63788)"
       id="g3049"
       style="fill-rule:evenodd">
      <path
         d="m 69.795,277.08 c 0,0 -0.147,-50.04 0,-157.2 h -1.591 c -0.148,107.16 0,157.2 0,157.2 h 1.591 z"
         id="path3051"
         style="fill:#000000" />
      <path
         d="m 69.214,130.67 6.303,6.14 -6.261,-21.47 -6.38,21.44 6.338,-6.11 z"
         id="path3053"
         style="stroke:#000000;stroke-width:1.24497604pt;marker-start:none" />
    </g>
    <text
       x="170.97577"
       y="226.77881"
       id="text3055"
       xml:space="preserve"
       style="font-size:28px;font-style:normal;font-variant:normal;font-weight:normal;font-stretch:normal;text-align:start;line-height:100%;writing-mode:lr-tb;text-anchor:start;fill:#000000;font-family:Bookman Old Style"><tspan
         x="170.97577"
         y="226.77881"
         id="tspan3057">elevation</tspan></text>
  </g>
</svg>
