<svg xmlns="http://www.w3.org/2000/svg" viewBox="0 0 64 64" width="64" height="64">
  <!-- Server tower body -->
  <rect x="14" y="6" width="36" height="52" rx="3" ry="3" fill="#1565c0" stroke="#1976d2" stroke-width="1.5"/>
  <!-- Top unit -->
  <rect x="18" y="10" width="28" height="10" rx="2" ry="2" fill="#0d47a1"/>
  <rect x="20" y="13" width="12" height="2" rx="1" fill="#00e676"/>
  <rect x="34" y="13" width="4" height="2" rx="1" fill="#00e676"/>
  <circle cx="40" cy="14" r="1.5" fill="#00bcd4"/>
  <!-- Middle unit -->
  <rect x="18" y="24" width="28" height="10" rx="2" ry="2" fill="#0d47a1"/>
  <rect x="20" y="27" width="12" height="2" rx="1" fill="#00e676"/>
  <rect x="34" y="27" width="4" height="2" rx="1" fill="#64b5f6"/>
  <circle cx="40" cy="28" r="1.5" fill="#00e676"/>
  <!-- Bottom unit -->
  <rect x="18" y="38" width="28" height="10" rx="2" ry="2" fill="#0d47a1"/>
  <rect x="20" y="41" width="12" height="2" rx="1" fill="#64b5f6"/>
  <rect x="34" y="41" width="4" height="2" rx="1" fill="#00e676"/>
  <circle cx="40" cy="42" r="1.5" fill="#00e676"/>
  <!-- Base -->
  <rect x="11" y="54" width="42" height="5" rx="2" ry="2" fill="#0d47a1"/>
  <rect x="16" y="56" width="32" height="2" rx="1" fill="#1976d2"/>
</svg>
