<svg xmlns="http://www.w3.org/2000/svg" viewBox="0 0 32 32">
  <circle cx="16" cy="16" r="15" fill="#02020f" stroke="#1e293b" stroke-width="1"/>
  <!-- color wheel segments -->
  <path d="M16 16 L16 3 A13 13 0 0 1 28.26 9.5 Z" fill="#ec4899"/>
  <path d="M16 16 L28.26 9.5 A13 13 0 0 1 28.26 22.5 Z" fill="#f97316"/>
  <path d="M16 16 L28.26 22.5 A13 13 0 0 1 16 29 Z" fill="#eab308"/>
  <path d="M16 16 L16 29 A13 13 0 0 1 3.74 22.5 Z" fill="#22c55e"/>
  <path d="M16 16 L3.74 22.5 A13 13 0 0 1 3.74 9.5 Z" fill="#06b6d4"/>
  <path d="M16 16 L3.74 9.5 A13 13 0 0 1 16 3 Z" fill="#8b5cf6"/>
  <circle cx="16" cy="16" r="5" fill="#02020f"/>
</svg>
