<svg xmlns="http://www.w3.org/2000/svg" viewBox="0 0 880 420" font-family="'Courier New', Courier, monospace">
  <rect width="880" height="420" fill="#12131a" rx="12"/>

  <!-- Title -->
  <text x="440" y="36" text-anchor="middle" font-size="14" fill="#6272a4" letter-spacing="3">POPULAR PALETTES</text>

  <!-- Helper: each palette row is: label + 8 blocks of 44px wide, 26px tall -->
  <!-- Row spacing: y = 62, 122, 182, 242, 302, 362 -->
  <!-- Col spacing: x = 22, 462 (two columns) -->

  <!-- ══ LEFT COLUMN ══ -->

  <!-- dracula-dark -->
  <text x="22" y="65" font-size="11" fill="#8892b0" letter-spacing="1">dracula-dark</text>
  <rect x="22"  y="72" width="44" height="24" rx="3" fill="#44475a"/>
  <rect x="70"  y="72" width="44" height="24" rx="3" fill="#ff5555"/>
  <rect x="118" y="72" width="44" height="24" rx="3" fill="#50fa7b"/>
  <rect x="166" y="72" width="44" height="24" rx="3" fill="#ffb86c"/>
  <rect x="214" y="72" width="44" height="24" rx="3" fill="#8be9fd"/>
  <rect x="262" y="72" width="44" height="24" rx="3" fill="#bd93f9"/>
  <rect x="310" y="72" width="44" height="24" rx="3" fill="#ff79c6"/>
  <rect x="358" y="72" width="44" height="24" rx="3" fill="#94a3a5"/>

  <!-- monokai-dark -->
  <text x="22" y="121" font-size="11" fill="#8892b0" letter-spacing="1">monokai-dark</text>
  <rect x="22"  y="128" width="44" height="24" rx="3" fill="#75715e"/>
  <rect x="70"  y="128" width="44" height="24" rx="3" fill="#f92672"/>
  <rect x="118" y="128" width="44" height="24" rx="3" fill="#a6e22e"/>
  <rect x="166" y="128" width="44" height="24" rx="3" fill="#f4bf75"/>
  <rect x="214" y="128" width="44" height="24" rx="3" fill="#66d9ef"/>
  <rect x="262" y="128" width="44" height="24" rx="3" fill="#ae81ff"/>
  <rect x="310" y="128" width="44" height="24" rx="3" fill="#2aa198"/>
  <rect x="358" y="128" width="44" height="24" rx="3" fill="#f9f8f5"/>

  <!-- nord -->
  <text x="22" y="177" font-size="11" fill="#8892b0" letter-spacing="1">nord</text>
  <rect x="22"  y="184" width="44" height="24" rx="3" fill="#3b4252"/>
  <rect x="70"  y="184" width="44" height="24" rx="3" fill="#bf616a"/>
  <rect x="118" y="184" width="44" height="24" rx="3" fill="#a3be8c"/>
  <rect x="166" y="184" width="44" height="24" rx="3" fill="#ebcb8b"/>
  <rect x="214" y="184" width="44" height="24" rx="3" fill="#81a1c1"/>
  <rect x="262" y="184" width="44" height="24" rx="3" fill="#b48ead"/>
  <rect x="310" y="184" width="44" height="24" rx="3" fill="#88c0d0"/>
  <rect x="358" y="184" width="44" height="24" rx="3" fill="#e5e9f0"/>

  <!-- gruvbox-dark -->
  <text x="22" y="233" font-size="11" fill="#8892b0" letter-spacing="1">gruvbox-dark</text>
  <rect x="22"  y="240" width="44" height="24" rx="3" fill="#282828"/>
  <rect x="70"  y="240" width="44" height="24" rx="3" fill="#cc241d"/>
  <rect x="118" y="240" width="44" height="24" rx="3" fill="#98971a"/>
  <rect x="166" y="240" width="44" height="24" rx="3" fill="#d79921"/>
  <rect x="214" y="240" width="44" height="24" rx="3" fill="#458588"/>
  <rect x="262" y="240" width="44" height="24" rx="3" fill="#b16286"/>
  <rect x="310" y="240" width="44" height="24" rx="3" fill="#689d6a"/>
  <rect x="358" y="240" width="44" height="24" rx="3" fill="#a89984"/>

  <!-- solarized-dark -->
  <text x="22" y="289" font-size="11" fill="#8892b0" letter-spacing="1">solarized-dark</text>
  <rect x="22"  y="296" width="44" height="24" rx="3" fill="#073642"/>
  <rect x="70"  y="296" width="44" height="24" rx="3" fill="#dc322f"/>
  <rect x="118" y="296" width="44" height="24" rx="3" fill="#859900"/>
  <rect x="166" y="296" width="44" height="24" rx="3" fill="#b58900"/>
  <rect x="214" y="296" width="44" height="24" rx="3" fill="#268bd2"/>
  <rect x="262" y="296" width="44" height="24" rx="3" fill="#d33682"/>
  <rect x="310" y="296" width="44" height="24" rx="3" fill="#2aa198"/>
  <rect x="358" y="296" width="44" height="24" rx="3" fill="#eee8d5"/>

  <!-- rose-pine-dark -->
  <text x="22" y="345" font-size="11" fill="#8892b0" letter-spacing="1">rose-pine-dark</text>
  <rect x="22"  y="352" width="44" height="24" rx="3" fill="#706e86"/>
  <rect x="70"  y="352" width="44" height="24" rx="3" fill="#eb6f92"/>
  <rect x="118" y="352" width="44" height="24" rx="3" fill="#9ccfd8"/>
  <rect x="166" y="352" width="44" height="24" rx="3" fill="#f6c177"/>
  <rect x="214" y="352" width="44" height="24" rx="3" fill="#31748f"/>
  <rect x="262" y="352" width="44" height="24" rx="3" fill="#c4a7e7"/>
  <rect x="310" y="352" width="44" height="24" rx="3" fill="#ebbcba"/>
  <rect x="358" y="352" width="44" height="24" rx="3" fill="#e0def4"/>

  <!-- Vertical divider -->
  <line x1="440" y1="50" x2="440" y2="395" stroke="#2d2f3f" stroke-width="1.5"/>

  <!-- ══ RIGHT COLUMN ══ -->

  <!-- onedark-dark -->
  <text x="462" y="65" font-size="11" fill="#8892b0" letter-spacing="1">onedark-dark</text>
  <rect x="462" y="72" width="44" height="24" rx="3" fill="#1e2127"/>
  <rect x="510" y="72" width="44" height="24" rx="3" fill="#e06c75"/>
  <rect x="558" y="72" width="44" height="24" rx="3" fill="#98c379"/>
  <rect x="606" y="72" width="44" height="24" rx="3" fill="#d19a66"/>
  <rect x="654" y="72" width="44" height="24" rx="3" fill="#61afef"/>
  <rect x="702" y="72" width="44" height="24" rx="3" fill="#c678dd"/>
  <rect x="750" y="72" width="44" height="24" rx="3" fill="#56b6c2"/>
  <rect x="798" y="72" width="44" height="24" rx="3" fill="#abb2bf"/>

  <!-- tomorrow-night-dark -->
  <text x="462" y="121" font-size="11" fill="#8892b0" letter-spacing="1">tomorrow-night-dark</text>
  <rect x="462" y="128" width="44" height="24" rx="3" fill="#000000"/>
  <rect x="510" y="128" width="44" height="24" rx="3" fill="#cc6666"/>
  <rect x="558" y="128" width="44" height="24" rx="3" fill="#b5bd68"/>
  <rect x="606" y="128" width="44" height="24" rx="3" fill="#f0c674"/>
  <rect x="654" y="128" width="44" height="24" rx="3" fill="#81a2be"/>
  <rect x="702" y="128" width="44" height="24" rx="3" fill="#b294bb"/>
  <rect x="750" y="128" width="44" height="24" rx="3" fill="#8abeb7"/>
  <rect x="798" y="128" width="44" height="24" rx="3" fill="#c5c8c6"/>

  <!-- gotham-dark -->
  <text x="462" y="177" font-size="11" fill="#8892b0" letter-spacing="1">gotham-dark</text>
  <rect x="462" y="184" width="44" height="24" rx="3" fill="#0a0f14"/>
  <rect x="510" y="184" width="44" height="24" rx="3" fill="#c33027"/>
  <rect x="558" y="184" width="44" height="24" rx="3" fill="#26a98b"/>
  <rect x="606" y="184" width="44" height="24" rx="3" fill="#edb54b"/>
  <rect x="654" y="184" width="44" height="24" rx="3" fill="#195465"/>
  <rect x="702" y="184" width="44" height="24" rx="3" fill="#4e5165"/>
  <rect x="750" y="184" width="44" height="24" rx="3" fill="#33859d"/>
  <rect x="798" y="184" width="44" height="24" rx="3" fill="#98d1ce"/>

  <!-- cyberpunk-dark -->
  <text x="462" y="233" font-size="11" fill="#8892b0" letter-spacing="1">cyberpunk-dark</text>
  <rect x="462" y="240" width="44" height="24" rx="3" fill="#000b1e"/>
  <rect x="510" y="240" width="44" height="24" rx="3" fill="#ff0000"/>
  <rect x="558" y="240" width="44" height="24" rx="3" fill="#00ff9c"/>
  <rect x="606" y="240" width="44" height="24" rx="3" fill="#f57800"/>
  <rect x="654" y="240" width="44" height="24" rx="3" fill="#007fff"/>
  <rect x="702" y="240" width="44" height="24" rx="3" fill="#711c91"/>
  <rect x="750" y="240" width="44" height="24" rx="3" fill="#00b8fe"/>
  <rect x="798" y="240" width="44" height="24" rx="3" fill="#d3d3d3"/>

  <!-- base16-ocean-dark -->
  <text x="462" y="289" font-size="11" fill="#8892b0" letter-spacing="1">base16-ocean-dark</text>
  <rect x="462" y="296" width="44" height="24" rx="3" fill="#2b303b"/>
  <rect x="510" y="296" width="44" height="24" rx="3" fill="#bf616a"/>
  <rect x="558" y="296" width="44" height="24" rx="3" fill="#a3be8c"/>
  <rect x="606" y="296" width="44" height="24" rx="3" fill="#ebcb8b"/>
  <rect x="654" y="296" width="44" height="24" rx="3" fill="#8fa1b3"/>
  <rect x="702" y="296" width="44" height="24" rx="3" fill="#b48ead"/>
  <rect x="750" y="296" width="44" height="24" rx="3" fill="#96b5b4"/>
  <rect x="798" y="296" width="44" height="24" rx="3" fill="#c0c5ce"/>

  <!-- fairyfloss-dark -->
  <text x="462" y="345" font-size="11" fill="#8892b0" letter-spacing="1">fairyfloss-dark</text>
  <rect x="462" y="352" width="44" height="24" rx="3" fill="#5a5475"/>
  <rect x="510" y="352" width="44" height="24" rx="3" fill="#ff857f"/>
  <rect x="558" y="352" width="44" height="24" rx="3" fill="#ad5877"/>
  <rect x="606" y="352" width="44" height="24" rx="3" fill="#e6c000"/>
  <rect x="654" y="352" width="44" height="24" rx="3" fill="#c5a3ff"/>
  <rect x="702" y="352" width="44" height="24" rx="3" fill="#c2ffdf"/>
  <rect x="750" y="352" width="44" height="24" rx="3" fill="#f92672"/>
  <rect x="798" y="352" width="44" height="24" rx="3" fill="#f8f8f2"/>

  <!-- Footer -->
  <text x="440" y="400" text-anchor="middle" font-size="11" fill="#44475a" letter-spacing="2">420 palettes total — paleta + kfc/dark formats</text>
</svg>
