<?xml version="1.0" encoding="UTF-8" standalone="no"?>
<!-- Created with Inkscape (http://www.inkscape.org/) -->

<svg
   xmlns:dc="http://purl.org/dc/elements/1.1/"
   xmlns:cc="http://creativecommons.org/ns#"
   xmlns:rdf="http://www.w3.org/1999/02/22-rdf-syntax-ns#"
   xmlns:svg="http://www.w3.org/2000/svg"
   xmlns="http://www.w3.org/2000/svg"
   xmlns:sodipodi="http://sodipodi.sourceforge.net/DTD/sodipodi-0.dtd"
   xmlns:inkscape="http://www.inkscape.org/namespaces/inkscape"
   width="326.19986"
   height="314.4855"
   viewBox="0 0 86.30705 83.20762"
   version="1.1"
   id="svg8"
   inkscape:version="0.92.4 (5da689c313, 2019-01-14)"
   sodipodi:docname="mod pizza.svg">
  <defs
     id="defs2" />
  <sodipodi:namedview
     id="base"
     pagecolor="#ffffff"
     bordercolor="#666666"
     borderopacity="1.0"
     inkscape:pageopacity="0.0"
     inkscape:pageshadow="2"
     inkscape:zoom="0.98994949"
     inkscape:cx="452.51463"
     inkscape:cy="137.63414"
     inkscape:document-units="mm"
     inkscape:current-layer="layer1"
     showgrid="false"
     showguides="false"
     units="px"
     inkscape:window-width="1920"
     inkscape:window-height="1017"
     inkscape:window-x="-8"
     inkscape:window-y="176"
     inkscape:window-maximized="1" />
  <metadata
     id="metadata5">
    <rdf:RDF>
      <cc:Work
         rdf:about="">
        <dc:format>image/svg+xml</dc:format>
        <dc:type
           rdf:resource="http://purl.org/dc/dcmitype/StillImage" />
        <dc:title></dc:title>
      </cc:Work>
    </rdf:RDF>
  </metadata>
  <g
     inkscape:label="Layer 1"
     inkscape:groupmode="layer"
     id="layer1"
     transform="translate(22.521592,-54.29015)">
    <g
       id="g842"
       transform="matrix(0.14551876,0,0,0.14551876,-22.529012,54.29015)">
      <path
         id="path819"
         d="m 583.6,398.6 c -31,54.4 -94.7,83.2 -158.8,107 -64.1,23.8 -128.2,66.2 -128.2,66.2 0,0 -64.1,-42.4 -128.2,-66.2 C 104.3,481.8 40.6,453 9.6,398.6 -21.4,344.2 33,192.7 33,148.5 33,104.3 2,34.8 2,34.8 L 128.2,2.6 201.6,28.1 296.6,0 391.6,28.1 465,2.6 591.3,34.8 c 0,0 -31,69.5 -31,113.6 -0.1,44.3 54.3,195.8 23.3,250.2 z"
         class="st0"
         inkscape:connector-curvature="0"
         style="fill:#79242f" />
      <path
         id="path821"
         d="M 168.4,505.6 C 104.3,481.8 40.6,453 9.6,398.6 -21.4,344.2 33,192.7 33,148.5 33,104.3 2,34.8 2,34.8 L 128.2,2.6 201.6,28.1 296.6,0 v 571.8 c 0,0 -64.1,-42.4 -128.2,-66.2 z"
         class="st1"
         inkscape:connector-curvature="0"
         style="fill:#aa182c" />
      <path
         id="path823"
         d="m 424.7,505.6 c 64.1,-23.8 127.8,-52.7 158.8,-107 31,-54.4 -23.4,-205.9 -23.4,-250.1 0,-44.2 31,-113.6 31,-113.6 L 464.9,2.6 391.5,28.1 296.6,0 v 571.8 c 0,0 64,-42.4 128.1,-66.2 z"
         class="st0"
         inkscape:connector-curvature="0"
         style="fill:#79242f" />
      <path
         id="path825"
         d="M 114,136.9 H 77.7 c -0.2,0 -0.4,0.2 -0.4,0.4 v 236.6 c 0,0.2 0.2,0.4 0.4,0.4 h 34.8 c 0.2,0 0.4,-0.2 0.4,-0.4 V 225.7 c 0,-0.4 0.6,-0.5 0.8,-0.1 l 28.7,76.5 h 1.9 l 28.8,-76.6 c 0.2,-0.4 0.8,-0.3 0.8,0.1 V 374 c 0,0.2 0.2,0.4 0.4,0.4 h 34.8 c 0.2,0 0.4,-0.2 0.4,-0.4 V 137.3 c 0,-0.2 -0.2,-0.4 -0.4,-0.4 h -36.3 c -0.2,0 -0.3,0.1 -0.4,0.3 l -28.7,79.6 c -0.1,0.3 -0.6,0.3 -0.7,0 l -28.7,-79.6 c 0,-0.2 -0.2,-0.3 -0.3,-0.3 z m 231.7,15.3 c -10,-12.1 -32.4,-18.9 -49.2,-18.9 -16.7,0 -39.7,7.1 -49,18.9 -11.4,14.3 -14.2,23.3 -14.2,59.3 v 85.4 c 0,36 2.8,48.5 14.2,62.4 10,11.8 32.2,18.6 49,18.6 16.8,0 39.9,-6.8 49.2,-18.6 11.4,-14.6 14.3,-26.8 14.3,-62.4 v -85.4 c 0,-35.6 -2.9,-45.7 -14.3,-59.3 z m -21.4,148.6 c 0,38.6 -11.3,43.9 -27.8,43.9 -16.5,0 -27.6,-5.2 -27.6,-43.5 v -89.8 c 0,-39.9 11.3,-44.8 27.6,-44.8 16.3,0 27.8,4.9 27.8,44.8 z m 127.4,73.5 c 38.8,0 57.2,-21.4 57.2,-67.4 v -103 c 0,-45.6 -18.4,-67 -57.2,-67 h -67.5 c -0.2,0 -0.4,0.2 -0.4,0.4 v 236.6 c 0,0.2 0.2,0.4 0.4,0.4 z M 417.9,340.7 V 170.4 c 0,-0.2 0.2,-0.4 0.4,-0.4 h 29.6 c 20.1,0 26.9,10.4 26.9,40.7 v 90.2 c 0,29.9 -6.8,40.3 -26.9,40.3 h -29.6 c -0.2,-0.1 -0.4,-0.2 -0.4,-0.5 z"
         class="st2"
         inkscape:connector-curvature="0"
         style="fill:#ffffff" />
    </g>
  </g>
  <style
     id="style815">.st0{fill:#79242f}.st1{fill:#aa182c}.st2{fill:#fff}</style>
</svg>
