<svg width="209" height="62" xmlns="http://www.w3.org/2000/svg" xmlns:xlink="http://www.w3.org/1999/xlink">
  <defs>
    <path id="a" d="M0 .362h208.612v60.941H0z"/>
    <path id="c" d="M0 61.638h208.613V.697H0z"/>
  </defs>
  <g fill="none" fill-rule="evenodd">
    <g transform="translate(0 .335)">
      <mask id="b" fill="#fff">
        <use xlink:href="#a"/>
      </mask>
      <path d="M8.883 54.859c6.427.828 12.852 1.604 19.296 2.32a1105.03 1105.03 0 0 0 19.25 1.805c6.404.489 12.8.916 19.21 1.288 6.39.315 12.773.576 19.168.774 6.374.145 12.744.231 19.123.257 6.36-.026 12.714-.112 19.077-.257 6.35-.198 12.691-.459 19.035-.774 6.34-.372 12.664-.8 18.995-1.288 6.323-.546 12.632-1.147 18.947-1.805 6.31-.716 12.606-1.49 18.905-2.32l8.723-1.232V8.024a1184.42 1184.42 0 0 0-21.32-2.838c-6.31-.714-12.615-1.375-18.936-1.977a1010.313 1010.313 0 0 0-18.977-1.46c-6.34-.375-12.675-.69-19.022-.95-6.356-.197-12.706-.34-19.064-.427-6.374-.026-12.737 0-19.108.087-6.39.143-12.767.34-19.15.6-6.407.318-12.8.69-19.196 1.119-6.422.487-12.83 1.03-19.239 1.633-6.438.66-12.858 1.377-19.281 2.147L-.001 8.015v45.617l8.884 1.227z" fill="#DEC48B" mask="url(#b)"/>
    </g>
    <path d="M2.246 51.288c68.459 9.738 136.085 9.738 202.885 0v-13H2.246v13z" fill="#006F3C"/>
    <path d="M2.246 10.629c68.459-9.74 136.085-9.74 202.885 0v27.659H2.246V10.629z" fill="#BF311A"/>
    <path d="M187.18 21.455c.32 0 .595-.144.82-.43l.379-.52c.41-.7.952-1.234 1.432-1.707.642-.635 1.553-1.458 1.409-2.696-.073-.62-.307-1.065-.8-1.314a2.175 2.175 0 0 0-.903-.232c-1.104-.053-.974.579-.974.579.51 1.095-.277 1.874-.963 2.77-.567.738-1.154 1.503-1.336 2.675.013.283.102.503.262.65.16.15.384.225.674.225zm-22.143 10.04c-.094-1.49 1.454-4.688 4.597-9.508.382-.578.563-1.088.538-1.508-.019-.476-.25-.909-.687-1.282-.316-.273-.746-.413-1.28-.413-.377 0-.82.07-1.312.21-1.306.376-2.861 1.31-4.618 2.776-1.09.895-2.015 1.781-2.767 2.65 2.552-4.752 4.687-8.205 6.356-10.277.99-1.218 1.573-1.9 1.73-2.03.2-.167.298-.346.286-.53-.007-.18-.13-.372-.381-.59-.293-.234-.693-.354-1.19-.354-.085 0-.178.003-.27.01-.66.048-1.207.193-1.628.436-.212.12-.524.372-.924.746-1.478 1.362-3.327 3.925-5.502 7.617-3.039 5.176-4.635 8.549-4.879 10.306-.127.916-.016 1.508.337 1.81.334.282.757.426 1.25.426.67 0 1.153-.242 1.435-.725 1.475-2.557 2.822-4.507 4.004-5.79a17.11 17.11 0 0 1 4.005-3.237c.38-.218.604-.298.755-.298a.29.29 0 0 1 .102.015c.004.056-.03.216-.289.646-1.74 2.792-2.582 5.074-2.5 6.787.069 1.432.655 2.281 1.75 2.53.267.047.474.071.63.071.307-.033.467-.208.452-.494zm-27.926-9.72c.159 0 .343.06.547.172.253.144.438.21.578.21.332 0 .607-.22.822-.65.199-.397.291-.776.275-1.126-.05-1.089-.659-1.316-1.164-1.316-.828 0-1.849.63-3.117 1.92-.578.584-1.22 1.326-1.924 2.213l.572-.934c.593-1.026.883-1.753.884-2.226.003-.443-.281-.846-.845-1.197-.384-.22-.73-.33-1.053-.33-.484 0-.907.28-1.257.835-2.555 4.286-4.355 7.505-5.354 9.569-.261.56-.381 1.002-.362 1.35.02.386.23.77.65 1.176.335.3.791.448 1.356.448.601 0 1.19-.428 1.758-1.288.358-.67.716-1.33 1.072-1.972 1.994-3.121 3.944-5.33 5.793-6.565.283-.188.543-.285.769-.288zm46.954-2.703a1.96 1.96 0 0 0-.862-.223c-.654 0-1.345.57-2.109 1.742-1.366 2.067-2.576 3.65-3.592 4.708-2.721 2.839-3.688 3.485-4.01 3.485h-.007c-.035-.707 1.225-3.1 3.738-7.11.19-.28.275-.637.254-1.096-.035-.702-.338-1.196-.91-1.476-.395-.169-.755-.253-1.068-.253-.62 0-1.177.384-1.657 1.143-2.768 4.453-4.45 7.515-4.999 9.1a3.12 3.12 0 0 0-.194 1.197c.056 1.179.684 1.802 1.808 1.802 1.413 0 3.21-.957 5.345-2.848 1.264-1.13 2.324-2.26 3.172-3.376-.602 1.296-1.2 2.585-1.801 3.87-1.32 2.742-2.572 4.897-3.72 6.405-1.585 2.06-5.44 4.328-6.953 4.371-.283 0-.61-.062-.967-.18-.574-.2-.677-.2-.71-.2-.09 0-.17.034-.23.1-.123.13-.172.377-.148.774.029.674.894.997 2.648.997h.016c2.187 0 6.755-2.39 8.886-4.653 1.6-1.72 3.254-4.193 4.922-7.352.291-.572 1.539-3.167 3.425-7.121.464-1.01.687-1.816.658-2.396-.029-.633-.341-1.106-.935-1.41zm-30.12.66c-.16-.746-.782-1.124-1.84-1.124-1.762 0-3.973 1.457-6.583 4.335.571-.923.975-1.564 1.209-1.93.207-.326.306-.644.29-.949-.024-.462-.284-.86-.767-1.183a2.115 2.115 0 0 0-1.24-.383c-.256 0-.534.04-.821.117-.42.109-1.232.713-3.425 4.658a77.387 77.387 0 0 0-3.417 6.92c0 .012 0 .068-.074.204a1.373 1.373 0 0 0-.132.293c-1.396 3.573-2.063 6.234-1.982 7.913.022.478.092.909.204 1.28.32 1.215 1.072 2.112 2.245 2.667a.445.445 0 0 0 .47-.099.566.566 0 0 0 .183-.461.483.483 0 0 0-.153-.326 1.76 1.76 0 0 1-.347-.545c-.047-.125-.092-.348-.129-.665-.105-.809.24-2.281 1.024-4.382a40.301 40.301 0 0 1 1.89-4.362c1-1.952 2.326-3.967 3.944-5.993a17.34 17.34 0 0 1 2.68-2.722c.946-.765 1.665-1.151 2.138-1.151.153 0 .317.049.334.423.008.151-.016.35-.07.588-.241 1.036-.902 2.292-1.972 3.737-1.378 1.91-3.52 3.43-5.064 3.699-.006.001-.011-.002-.018-.002-.184.018-.58.094-.687.41 0 0-.291.719.799 1.068.285.083.41.12.801.12.581 0 1.275-.11 2.061-.32 2.386-.661 4.485-2.29 6.239-4.843 1.601-2.321 2.37-4.454 2.279-6.342a4.5 4.5 0 0 0-.068-.65zm42.975 13.822a1.88 1.88 0 0 1-1.877-1.883 1.882 1.882 0 0 1 3.762 0c0 1.039-.845 1.883-1.885 1.883zm0-4.224a2.338 2.338 0 0 0-2.341 2.34 2.34 2.34 0 1 0 4.68 0 2.336 2.336 0 0 0-2.339-2.34zm.063 2.179h-.517v-.683h.462c.338 0 .512.12.512.34 0 .175-.113.343-.457.343zm.32.33v-.012c.42-.05.669-.318.669-.695 0-.392-.249-.694-.782-.694h-1.226v2.483h.502v-1.018h.093c.218 0 .304.025.406.124.1.1.25.313.338.489l.2.405h.62l-.288-.5c-.25-.438-.319-.507-.532-.582zm-.995-9.79a.573.573 0 0 0 .432-.163c.115-.12.17-.301.16-.541-.016-.307-.143-.614-.383-.915-.507-.608-1.122-.977-1.825-1.094a5.952 5.952 0 0 0-.937-.077c-1.97 0-3.197 1.32-3.644 3.932a424.7 424.7 0 0 0-.814 5.687c-.316 1.468-.904 2.183-1.8 2.183l-.136-.004c-.22 0-.431-.194-.631-.572-.251-.474-.58-.727-.988-.75-.26 0-.464.075-.61.228-.178.186-.259.485-.238.887.026.634.564 1.169 1.603 1.586.805.307 1.56.463 2.247.468h.02c1.477 0 2.646-.445 3.473-1.316 1.104-1.109 1.61-2.873 1.502-5.246-.085-1.948-.09-3.283-.012-4.08.087-.816.3-1.229.627-1.229.169 0 .493.114 1.084.634.311.252.602.381.87.381zm-164.27 6.336c-.128 0-.25-.039-.264-.315a1.676 1.676 0 0 1 .074-.523c.357-1.527 1.289-3.139 2.773-4.79 1.61-1.778 3.137-2.678 4.534-2.678.514 0 .934.152 1.01.528.21 1.045-6.755 7.778-8.127 7.778zm10.186-8.144l-.045-.109c-.442-1.139-1.55-1.604-3.822-1.604l-.163.001c-.801 0-1.566.106-2.268.32-2.381.654-4.524 2.336-6.37 5.003-1.691 2.433-2.502 4.616-2.409 6.496.009.216.03.423.068.62.156.647.715.976 1.661.976 1.97 0 4.392-1.518 7.042-4.402-.153.442-.224.943-.194 1.593.081 1.73.733 2.777 1.935 3.114.236.07.428.106.586.106.344 0 .544-.175.548-.479.02-1.048.359-2.375 1.001-3.935.793-1.553 1.418-2.728 1.95-3.6 1.287-2.147.72-3.518.48-4.1zm16.457-.524c-.162-.745-.783-1.123-1.841-1.123-1.763 0-3.974 1.456-6.582 4.334.571-.922.973-1.565 1.207-1.93.208-.326.308-.644.292-.95-.024-.462-.284-.86-.768-1.183a2.12 2.12 0 0 0-1.24-.382c-.256 0-.534.04-.822.117-.418.11-1.23.713-3.423 4.659a77.754 77.754 0 0 0-3.418 6.92c0 .01 0 .066-.074.202a1.452 1.452 0 0 0-.132.293c-1.396 3.573-2.062 6.235-1.983 7.914.024.477.093.909.204 1.28.321 1.215 1.073 2.112 2.246 2.667a.447.447 0 0 0 .47-.1.567.567 0 0 0 .182-.46.479.479 0 0 0-.152-.326 1.747 1.747 0 0 1-.347-.545c-.048-.126-.092-.349-.129-.664-.105-.81.24-2.282 1.023-4.383a40.512 40.512 0 0 1 1.89-4.362c1.001-1.952 2.327-3.967 3.944-5.992a17.38 17.38 0 0 1 2.681-2.724c.946-.764 1.666-1.15 2.137-1.15.155 0 .317.048.335.423a2.31 2.31 0 0 1-.069.587c-.242 1.038-.904 2.293-1.972 3.739-1.38 1.91-3.521 3.43-5.065 3.697-.006.002-.012-.001-.017-.001-.185.019-.58.094-.688.408 0 0-.291.72.798 1.07.286.083.411.12.802.12.581 0 1.275-.109 2.062-.321 2.385-.66 4.484-2.288 6.237-4.842 1.602-2.32 2.372-4.455 2.28-6.342a4.596 4.596 0 0 0-.068-.65zm-27.184-3.346c0-3.4-3.762-4.904-8.477-5.022-4.448-.11-8.183 1.446-10.678 3.104-.35.232-.534.526-.514.923.006.163.053.311.143.454.198.304.452.458.758.458.218 0 .455-.087.72-.243 3.583-2.125 6.625-2.253 6.625-2.253-2.108 2.4-3.738 4.5-5.113 6.575-1.477 2.247-2.536 4.004-3.143 5.228-.931 1.87-1.372 3.461-1.312 4.73.023.473.119.93.283 1.364.131.313.377.655.748 1.051.325.344.622.51.907.51a.596.596 0 0 0 .165-.02l.066-.015.028-.061c.108-.243.172-.482.188-.705.044-.449.274-1.135.68-2.041 1.245-2.72 2.981-5.696 5.16-8.842 2.592-3.756 4.532-6.301 5.772-7.56.214-.228.48-.34.812-.34.794 0 1.327.434 1.63 1.326.131.381.204.764.222 1.138.086 1.768-.817 3.419-2.679 4.904-1.56 1.247-3.096 1.883-4.567 1.883a5.38 5.38 0 0 1-.627-.04 1.929 1.929 0 0 0-.257-.017c-.244 0-.427.061-.54.18a.539.539 0 0 0-.133.41c.029.613.983.898 3.002.898.232 0 .478-.004.736-.011 2.271-.07 4.447-.976 6.469-2.694 2.028-1.723 2.926-3.496 2.926-5.272zm96.104 4.411c.046-.64-.292-1.152-1.004-1.523a2.472 2.472 0 0 0-1.172-.294c-.203 0-.414.024-.622.07-.282.054-.547.22-.754.472-.057.039-.155.126-.425.481l-2.707 3.336c-1.747 2.138-3.437 3.777-5.022 4.878-.364.257-.53.307-.625.307h-.014c-.033-.184.36-1.233 3.344-6.205.468-.772.684-1.379.661-1.85-.027-.556-.348-1.017-.96-1.37-.363-.197-.682-.293-.978-.293-.648 0-1.27.465-1.852 1.39-1.942 3.143-3.478 5.823-4.565 7.964-.367.715-.538 1.392-.508 2.017.06 1.217.74 1.834 2.017 1.834 1.293 0 3.038-1.068 5.33-3.27.616-.585 1.753-1.798 3.39-3.61-.836 1.636-1.229 3.095-1.166 4.348.057 1.172.474 2.075 1.248 2.682.247.18.482.266.72.266.134 0 .2 0 1.21-2.73.665-1.774 1.023-2.714 1.064-2.796 1.5-2.622 2.487-4.291 2.936-4.96.268-.414.42-.797.454-1.144zm-13.28-5.323c.434-.68.577-1.379.43-2.076-.214-1.002-.756-1.51-1.608-1.51-.168 0-.353.02-.542.06-1.207.24-3.026 1.338-5.565 3.356-1.955 1.559-3.556 2.998-4.756 4.274l-.894.958.515-.977c1.044-2.308 1.514-3.794 1.434-4.548-.109-.974-.673-1.49-1.637-1.49-.06 0-.123.003-.185.006-2.14.134-5.705 3.21-10.903 9.405 1.211-2.22 1.972-3.667 2.326-4.426 1.258-2.73 1.798-4.712 1.65-6.057-.137-1.242-.872-1.871-2.184-1.871-.09 0-.179.003-.271.008-1.907.12-3.954.94-6.089 2.445-1.577 1.104-2.894 2.305-3.908 3.572-.438.524-.634.956-.595 1.324.072.635.468.772.87.772h.008c.442-.024.783-.266 1.018-.725.392-.801 1.1-2.03 2.746-3.428C87.97 13 89.553 12.4 90.445 12.35c.189 0 .328.047.427.148.13.134.194.371.186.704-.022 1.248-1.296 4.044-3.788 8.31-3.46 5.935-4.996 8.606-5.135 8.919-.128.24-.176.517-.144.822.084.77.494 1.277 1.223 1.511.229.069.466.1.705.1l.15-.004c.826-.049 1.406-.354 1.724-.897 1.184-2.013 3.268-4.901 6.197-8.58a38.508 38.508 0 0 1 6.082-6.062c.219-.172.356-.24.458-.24.038 0 .073.008.105.03.014.12-.023.38-.264.916-1.866 3.996-3.513 7.293-4.893 9.797-.207.38-.287.798-.237 1.24.067.62.333 1.084.796 1.387.31.18.642.273.99.273l.125-.004c.618-.038 1.084-.298 1.385-.769 2.136-3.385 3.917-5.948 5.297-7.62 2.873-3.462 5.506-5.827 7.821-7.028.149-.064.243-.094.33-.094.036 0 .07.004.106.014.004.04-.003.125-.082.27-4.388 7.43-5.927 11.04-5.879 13.794.039 1.671.616 2.78 1.69 3.28.128.093.287.136.567.136h.02c.161-.006.285-.058.36-.148a.391.391 0 0 0 .083-.306l-.064-.554c.068-.618.163-1.106.284-1.455 1.566-4.874 3.465-8.742 7.25-14.781zM63.205 28.385c-.129 0-.25-.039-.264-.315a1.659 1.659 0 0 1 .074-.523c.356-1.527 1.288-3.139 2.773-4.79 1.61-1.778 3.137-2.678 4.534-2.678.514 0 .934.152 1.01.528.21 1.045-6.755 7.778-8.127 7.778zm10.14-8.253c-.442-1.139-1.55-1.604-3.822-1.604l-.162.001c-.801 0-1.566.106-2.268.32-2.381.654-4.524 2.336-6.37 5.003-1.692 2.433-2.502 4.616-2.41 6.496.01.216.03.423.068.62.156.647.716.976 1.662.976 1.969 0 4.391-1.518 7.041-4.402-.152.442-.223.943-.194 1.593.082 1.73.734 2.777 1.935 3.114.236.07.429.106.587.106.343 0 .543-.175.547-.479.02-1.048.36-2.375 1.001-3.935.794-1.553 1.418-2.728 1.952-3.6 1.286-2.147.719-3.518.479-4.1l-.045-.109zM48.75 46.056v6.721h-1.753v-6.721h-2.285v-1.467h6.335v1.467zM55.969 50.105c-.376-.854-.74-1.717-.99-2.434-.239.568-.671 1.66-1.012 2.434h2.002zm-1.035-5.641h.068l3.981 8.314h-1.831l-.66-1.444h-3.06l-.636 1.444h-1.832l3.97-8.314zM62.016 48.456l3.185-3.868h2.07l-2.866 3.379 1.069 2.07c.398.762.648 1.262 1.216 1.319.205.034.41.023.638-.022v1.5a2.865 2.865 0 0 1-.808.103c-1.024 0-1.603-.5-2.286-1.831l-1.058-1.968-1.16 1.331v2.309h-1.751v-8.19h1.75v3.868zM68.87 52.778v-8.19h5.267v1.468h-3.514v1.865h2.98v1.41h-2.98v1.98h3.684v1.467zM78.715 44.278h1.193l-.77 2.88H77.64zM87.54 52.903l-4.493-4.31-.535-.467v4.652h-1.717v-8.314h.068l4.482 4.31.523.466v-4.652h1.729v8.315zM89.723 47.158H88.53l.769-2.88h1.499zM96.279 51.38h1.296c.694 0 1.24-.388 1.24-1.104 0-.717-.5-1.092-1.126-1.092h-1.41v2.195zM97.325 48c.239 0 .455-.01.66-.067.33-.126.546-.444.546-.899 0-.683-.467-1.046-1.16-1.046h-1.092V48h1.046zm3.287 2.39c0 1.569-1.274 2.388-3.116 2.388h-2.89v-8.19h2.65c1.74 0 3.05.763 3.05 2.298a1.71 1.71 0 0 1-1.047 1.592 2.02 2.02 0 0 1 1.353 1.911zM106.432 50.105c-.375-.854-.74-1.717-.99-2.434-.238.568-.67 1.66-1.012 2.434h2.002zm-1.034-5.641h.067l3.981 8.314h-1.831l-.66-1.444h-3.06l-.636 1.444h-1.832l3.97-8.314zM112.48 48.456l3.184-3.868h2.07l-2.866 3.379 1.069 2.07c.398.762.648 1.262 1.217 1.319.204.034.41.023.637-.022v1.5a2.865 2.865 0 0 1-.807.103c-1.024 0-1.605-.5-2.287-1.831l-1.058-1.968-1.16 1.331v2.309h-1.752v-8.19h1.752v3.868zM119.334 52.778v-8.19h5.266v1.468h-3.515v1.865h2.98v1.41h-2.98v1.98h3.685v1.467zM130.692 46.056v2.446h1.001c.762 0 1.285-.399 1.285-1.217 0-.82-.546-1.23-1.33-1.23h-.956zm0 3.924v2.797h-1.752V44.59h2.662c1.889 0 3.15.932 3.15 2.696 0 1.762-1.261 2.695-3.15 2.695h-.91z" fill="#FEFEFE"/>
    <mask id="d" fill="#fff">
      <use xlink:href="#c"/>
    </mask>
    <path fill="#FEFEFE" mask="url(#d)" d="M136.307 52.778h1.752v-8.19h-1.752zM143.642 46.056h-3.606v-1.467h6.267l-3.958 6.721h3.833v1.467h-6.494zM151.304 46.056h-3.606v-1.467h6.267l-3.957 6.721h3.833v1.467h-6.495zM159.672 50.105c-.376-.854-.74-1.717-.99-2.434-.239.568-.671 1.66-1.012 2.434h2.002zm-1.035-5.641h.068l3.98 8.314h-1.831l-.659-1.444h-3.06l-.637 1.444h-1.831l3.97-8.314z"/>
  </g>
</svg>