<?xml version="1.0" encoding="UTF-8"?>
<!-- Generator: Adobe Illustrator 23.0.1, SVG Export Plug-In . SVG Version: 6.00 Build 0)  -->
<svg xmlns="http://www.w3.org/2000/svg" xmlns:xlink="http://www.w3.org/1999/xlink" version="1.1" id="Layer_1" x="0px" y="0px" viewBox="0 0 300 112.4" style="enable-background:new 0 0 300 112.4;" xml:space="preserve">
<style type="text/css">
	.st0{fill:#000000;}
</style>
<g>
	<g>
		<path class="st0" d="M234.6,61.6l-22.1,2.7c-0.3,0-0.4-0.3-0.1-0.5c0.7-0.4,1.2-0.9,1.6-1.7c0.6-1.3,4.2-31.7,4.2-31.7    c0.2-1.5-0.4-2.2-1.3-2.6c-0.3-0.1-0.2-0.5,0.1-0.5l22.4-2.7l-1.9,15.4l-7.3,3.8c1.9,0.8,4.3,1.5,6.5,2    C235.7,52.3,235.5,55,234.6,61.6z M228.3,47.9l-4.4-1.3l-1.3,11l4.7-0.6L228.3,47.9z M225.8,31.6l-1.2,9.3    c0.5,0.1,0.8,0.2,1.2,0.3l3.6-1.8l0,0l1.1-8.4L225.8,31.6z"></path>
		<path class="st0" d="M75,44.2l-4.6,37.1L48.2,84c-0.3,0-0.4-0.3-0.1-0.5c0.7-0.4,1.4-1,1.7-1.9l4.1-31.6c0.2-1.5-0.4-2.2-1.3-2.6    c-0.3-0.1-0.2-0.5,0.1-0.5L75,44.2z M66.3,50.7l-4.7,0.6c-1.4,11.1-1.8,14.9-3.3,26l4.7-0.6L66.3,50.7z"></path>
		<path class="st0" d="M101.8,41l-4.6,37.1L75,80.8c-0.3,0-0.4-0.3-0.1-0.5c0.9-0.5,1.6-1.3,1.7-2.3l4-31.1c0.2-1.5-0.4-2.2-1.3-2.6    c-0.3-0.1-0.2-0.5,0.1-0.5l9.7-1.2c-1.2,9.4-2.3,18.3-4,31.5l4.7-0.6c1.7-13.2,2.3-18.4,4-31.5L101.8,41z"></path>
		<path class="st0" d="M129.6,37.7l-4.7,37.1l-7.5,0.9l-4.3-21.4L111,76.4l-9.7,1.2c-0.3,0-0.4-0.4-0.1-0.5c1.5-0.8,2.1-1.9,2.3-3.3    l3.8-29.7c0.2-1.5-0.2-2.5-1.6-3c-0.3-0.1-0.2-0.5,0.1-0.5l9.6-1.2l3.1,23.3l2.6-20.3c0.2-1.5-0.1-2.5-1.5-3    c-0.3-0.1-0.2-0.5,0.1-0.5L129.6,37.7z"></path>
		<path class="st0" d="M213.4,27.6l-4.6,37.1l-9.8,1.2c-0.3,0-0.4-0.4-0.1-0.5c1.5-0.8,1.8-0.5,2-1.9l2-14.2    c-1.5,0.5-2.6,0.7-4.8,0.6l-2,16.3l-9.8,1.2c-0.3,0-0.4-0.4-0.1-0.5c1.5-0.9,1.8-0.5,2-2c0.8-5.8,3.5-26.6,4.1-31.1    c0.2-1.4-0.1-2.5-1.5-3c-0.3-0.1-0.2-0.5,0.1-0.5L213.4,27.6z M204.7,34.1l-4.5,0.6l-1.4,9.7c1.6,0.1,3.2-0.3,4.7-0.9L204.7,34.1z    "></path>
		<path class="st0" d="M258.4,51.2c-1.4,2.3-3.7,3.3-6.4,3.6l-3.9,0.4c1.7-13.2,2.7-22.7,3.9-32.2l-9.7,1.2c-0.3,0-0.4,0.4-0.1,0.5    c1,0.4,1.5,1.1,1.3,2.6l-3.6,29.2c-0.1,1.2-0.4,2.2-0.5,2.5c-0.3,0.8-0.9,1.3-1.6,1.7c-0.3,0.2-0.2,0.5,0.1,0.5l19.8-2.4    c0.7-5.7,0.2-2.2,0.9-7.6C258.5,51.2,258.4,51.1,258.4,51.2z"></path>
		<path class="st0" d="M157.5,56.7"></path>
		<path class="st0" d="M167.4,35.8c0,0-1.2,1.1-4.2,1.7c-5.8,1.1-9.7-0.8-11.2-2.4l-18.6,2.2c-0.3,0-0.4,0.4-0.1,0.5    c1,0.4,1.5,1.1,1.3,2.6c0,0-3.5,30.4-4.1,31.7c-0.3,0.8-0.9,1.3-1.6,1.7c-0.3,0.2-0.2,0.5,0.1,0.5l20.7-2.5l6.1-14.9l-2.3-15    l-0.2-0.8C166.9,40.4,167.4,35.8,167.4,35.8z M142.5,67.1l-3.4,0.4c1.4-11.1,1.8-14.9,3.3-26l2.6-0.3c0.9-0.1,1.6,0.5,1.8,1.4    l1.7,11.7l-4.7,11.8C143.5,66.7,143.1,67.1,142.5,67.1z"></path>
		<g>
			<path class="st0" d="M202.8,20.1c-4.1,5.2-12.8,1.6-20.2,2.6c-0.5,0.1,1.7,0.4,4.6,3c-1.4,11.1-5.2,39.4-6.9,53.2l-6.9-8.9     L157.4,71l16.3-4.8l6-43.8c-14.2-1.2-23.9-0.4-25.4,12.6c-0.8-0.8-5.1-9.3,2.1-16.3c7.2-7.1,22.9-2.1,34.5-1.3     c2.1-0.2,4.8-0.1,6.3-2.1c0.8-0.9,1.2-2.1,1.3-3.4c0.4,0.9,0.7,2.2,0.6,3.7c-0.1,1.4-0.5,3.4-2.3,5     C199.1,21.1,202.8,20.1,202.8,20.1z"></path>
		</g>
		<path class="st0" d="M283.8,30l1.6-11.1l-21.1,2.6c-0.3,0-0.4,0.4-0.1,0.5c1,0.4,1.5,1.1,1.3,2.6c0,0-3,24.9-4,31.1    c-0.1,0.3-0.1,0.5-0.2,0.6c-0.3,0.8-0.9,1.3-1.6,1.7c-0.2,0.1-0.2,0.5,0,0.5c0,0,0.1,0,0.1,0l21.6-2.6c0,0,0,0,0,0l0,0    c0.7-5.7,0.2-2.2,0.9-7.6c0-0.1-0.1-0.1-0.1,0c-1.4,2.3-3.7,3.3-6.4,3.6l-6.1,0.6l1.5-11.3c2.1,0.1,4.3-0.2,5.7-0.7l0.6-5.8    c-1.4,0.6-4,1-5.6,1l1.3-9.7l5.3-0.6l-0.4,2.6C281.6,28,283.8,30,283.8,30z"></path>
		<path class="st0" d="M46.3,30.5c-0.2,0-21.6,2.5-21.6,2.5c-1.5,0.2-3.6,0.5-4.7-0.2c-0.2-0.1-1.1-0.6-1.6-1.2    c-0.2-0.3-0.6-0.1-0.6,0.3c0.1,0.8,0.1,0.9,0.4,1.8c0.7,2,2.5,6,7,5.6c1.1-0.1,2.5-0.3,4-0.4c-0.9,0.2-3.8,1.1-6.8,4l-7.8,57.5    l9.3-7.9c0,0,4.4-30.9,7.1-51.5l0.3-2.2c4.5-0.5,9.2-1.1,9.2-1.1l-2.2,17.2L37.8,59l-0.5,4.4l-0.5,0.1c-2.5,0.7-4,0.6-4.9-0.3    c-0.2-0.2-0.3-0.4-0.4-0.6c-0.1-0.2-0.5-0.1-0.5,0.2c-0.1,0.9,0,1.8,0.2,3l2.9,20l3.1-0.4l7.8-1c0.3,0,0.4-0.4,0.1-0.5    c-0.7-0.3-1.4-0.7-1.7-1.4l-3-15.9c1.7-0.5,4.1-1.2,6-2.2L49.8,37l0,0c0.1-0.8,0.3-1.7,0.3-2.6l0-0.1l0,0    C50.3,32.1,49.8,30.1,46.3,30.5z"></path>
	</g>
	<g>
		<path class="st0" d="M128.9,83.9c0-0.2,0.2-0.3,0.4-0.4l4.3-0.5c2.2-0.3,3.8,1.3,3.5,3.4c-0.3,2.2-2.3,4.1-4.5,4.4l-1.9,0.2    l-0.5,4.1c0,0.2-0.2,0.3-0.4,0.4l-2.1,0.3c-0.2,0-0.3-0.1-0.3-0.3L128.9,83.9z M132.8,88.3c0.8-0.1,1.5-0.8,1.6-1.5    c0.1-0.7-0.5-1.2-1.3-1.1l-1.7,0.2l-0.3,2.7L132.8,88.3z"></path>
		<path class="st0" d="M139.3,82.7c0-0.2,0.2-0.3,0.4-0.4l2.1-0.3c0.2,0,0.3,0.1,0.3,0.3l-1.4,11.5c0,0.2-0.2,0.3-0.4,0.4l-2.1,0.3    c-0.2,0-0.3-0.1-0.3-0.3L139.3,82.7z"></path>
		<path class="st0" d="M143.1,93.3l5.9-9.5l0,0l-3.9,0.5c-0.2,0-0.3-0.1-0.3-0.3L145,82c0-0.2,0.2-0.3,0.4-0.4l7.6-0.9    c0.2,0,0.3,0.1,0.3,0.3l0,0.2l-5.7,9.6l0,0l3.9-0.5c0.2,0,0.3,0.1,0.3,0.3l-0.2,1.9c0,0.2-0.2,0.3-0.4,0.4l-7.8,0.9    c-0.2,0-0.3-0.1-0.3-0.3L143.1,93.3z"></path>
		<path class="st0" d="M153.2,92.1l5.9-9.5l0,0l-3.9,0.5c-0.2,0-0.3-0.1-0.3-0.3l0.2-1.9c0-0.2,0.2-0.3,0.4-0.4l7.6-0.9    c0.2,0,0.3,0.1,0.3,0.3l0,0.2l-5.7,9.6l0,0l3.9-0.5c0.2,0,0.3,0.1,0.3,0.3l-0.2,1.9c0,0.2-0.2,0.3-0.4,0.4l-7.8,0.9    c-0.2,0-0.3-0.1-0.3-0.3L153.2,92.1z"></path>
		<path class="st0" d="M162.7,91.1l7-12.4c0.1-0.1,0.2-0.2,0.3-0.2l0.2,0c0.1,0,0.2,0.1,0.3,0.2l4.2,11c0.1,0.2-0.1,0.5-0.4,0.5    l-2,0.2c-0.3,0-0.5,0-0.6-0.4l-0.5-1.3l-4.9,0.6l-0.8,1.5c-0.1,0.2-0.3,0.5-0.7,0.5l-2,0.2C162.7,91.5,162.6,91.3,162.7,91.1z     M170.6,86.5l-1-2.7l0,0l-1.7,3L170.6,86.5z"></path>
		<path class="st0" d="M186.6,77c0-0.2,0.2-0.3,0.4-0.4l5.4-0.6c2.1-0.3,3.7,1.2,3.4,3.3c-0.2,1.6-1.4,3-3.1,3.8l1.9,4.1    c0.1,0.2-0.1,0.5-0.4,0.5l-2.4,0.3c-0.1,0-0.2-0.1-0.3-0.1l-1.8-4.3l-1.2,0.1l-0.5,4.4c0,0.2-0.2,0.3-0.4,0.4l-2.1,0.3    c-0.2,0-0.3-0.1-0.3-0.3L186.6,77z M191.5,81.3c0.7-0.1,1.4-0.8,1.5-1.6c0.1-0.7-0.5-1.2-1.2-1.2l-2.7,0.3l-0.3,2.7L191.5,81.3z"></path>
		<path class="st0" d="M204.2,74.4c3.6-0.4,6.1,2,5.7,5.5c-0.4,3.5-3.6,6.6-7.2,7c-3.6,0.4-6.1-2-5.7-5.5    C197.4,78,200.6,74.9,204.2,74.4z M203,84.2c2-0.2,3.8-2,4-3.9c0.2-1.9-1.2-3.3-3.2-3.1c-2,0.2-3.8,2-4,3.9    C199.6,83,201,84.4,203,84.2z"></path>
		<path class="st0" d="M213.7,79.7l-3.2-5.3c-0.1-0.2,0.1-0.5,0.3-0.5l2.3-0.3c0.1,0,0.2,0.1,0.3,0.1l2.1,3.3l2.9-3.9    c0.1-0.1,0.1-0.2,0.3-0.2l2.3-0.3c0.3,0,0.4,0.2,0.2,0.5l-4.7,6.3l-0.7,5.5c0,0.2-0.2,0.3-0.4,0.4l-2.1,0.3    c-0.2,0-0.3-0.1-0.3-0.3L213.7,79.7z"></path>
		<path class="st0" d="M218.4,84.5l7-12.4c0.1-0.1,0.2-0.2,0.3-0.2l0.2,0c0.1,0,0.2,0.1,0.3,0.2l4.2,11c0.1,0.2-0.1,0.5-0.4,0.5    l-2,0.2c-0.3,0-0.5,0-0.6-0.4l-0.5-1.3l-4.9,0.6l-0.8,1.5c-0.1,0.2-0.3,0.5-0.7,0.5l-2,0.2C218.3,84.9,218.2,84.7,218.4,84.5z     M226.2,79.9l-1-2.7l0,0l-1.7,3L226.2,79.9z"></path>
		<path class="st0" d="M233.6,71.4c0-0.2,0.2-0.3,0.4-0.4l2.1-0.3c0.2,0,0.3,0.1,0.3,0.3l-1.1,9.3l4.3-0.5c0.2,0,0.3,0.1,0.3,0.3    l-0.2,1.9c0,0.2-0.2,0.3-0.4,0.4l-6.7,0.8c-0.2,0-0.3-0.1-0.3-0.3L233.6,71.4z"></path>
		<path class="st0" d="M243.7,72.4l-2.6,0.3c-0.2,0-0.3-0.1-0.3-0.3l0.2-1.9c0-0.2,0.2-0.3,0.4-0.4l8-0.9c0.2,0,0.3,0.1,0.3,0.3    l-0.2,1.9c0,0.2-0.2,0.3-0.4,0.4l-2.6,0.3l-1.1,9.3c0,0.2-0.2,0.3-0.4,0.4l-2.1,0.3c-0.2,0-0.3-0.1-0.3-0.3L243.7,72.4z"></path>
		<path class="st0" d="M254.1,74.9l-3.2-5.3c-0.1-0.2,0.1-0.5,0.3-0.5l2.3-0.3c0.1,0,0.2,0.1,0.3,0.1l2.1,3.3l2.9-3.9    c0.1-0.1,0.1-0.2,0.3-0.2l2.3-0.3c0.3,0,0.4,0.2,0.2,0.5l-4.7,6.3l-0.7,5.5c0,0.2-0.2,0.3-0.4,0.4l-2.1,0.3    c-0.2,0-0.3-0.1-0.3-0.3L254.1,74.9z"></path>
	</g>
	<g>
		<path class="st0" d="M288.5,18.5c1.2,0,2.2,1,2.2,2.2c0,1.2-1,2.2-2.2,2.2c-1.2,0-2.2-1-2.2-2.2C286.3,19.5,287.3,18.5,288.5,18.5    z M288.5,22.5c1,0,1.8-0.8,1.8-1.8c0-1-0.8-1.8-1.8-1.8c-1,0-1.8,0.8-1.8,1.8C286.6,21.7,287.5,22.5,288.5,22.5z M287.7,19.7    c0-0.1,0-0.1,0.1-0.1h0.9c0.4,0,0.7,0.2,0.7,0.7c0,0.5-0.3,0.6-0.5,0.7c0.1,0.2,0.2,0.5,0.4,0.7c0,0.1,0,0.2-0.1,0.2H289    c0,0-0.1,0-0.1-0.1l-0.3-0.8h-0.4v0.7c0,0.1,0,0.1-0.1,0.1h-0.2c-0.1,0-0.1-0.1-0.1-0.1V19.7z M288.7,20.6c0.2,0,0.4-0.2,0.4-0.3    c0-0.2-0.1-0.3-0.4-0.3h-0.6v0.7H288.7z"></path>
	</g>
</g>
</svg>
