<?xml version="1.0" encoding="UTF-8" ?>
<!DOCTYPE svg PUBLIC "-//W3C//DTD SVG 1.1//EN" "http://www.w3.org/Graphics/SVG/1.1/DTD/svg11.dtd">
<svg width="252.75pt" height="222.75pt" viewBox="0 0 1702 1498" version="1.1" xmlns="http://www.w3.org/2000/svg">
<g id="#1a1818ff">
<path fill="#de1d38" opacity="1.00" d=" M 995.65 0.00 L 1058.32 0.00 C 1068.25 0.86 1078.22 0.93 1088.17 1.49 C 1115.57 2.71 1142.92 4.87 1170.18 7.83 C 1213.95 12.39 1257.38 19.68 1300.66 27.49 C 1299.65 37.12 1297.51 46.57 1296.03 56.13 C 1277.81 162.14 1259.69 268.16 1241.45 374.17 C 1239.80 382.96 1238.92 391.90 1236.69 400.58 C 1226.31 403.87 1215.66 406.21 1205.20 409.18 C 1186.50 414.03 1167.94 419.44 1149.17 423.98 C 1151.74 406.26 1155.29 388.70 1158.03 371.01 C 1165.53 327.57 1172.91 284.12 1180.44 240.69 C 1188.48 192.41 1197.16 144.23 1205.10 95.94 C 1199.66 94.63 1194.11 93.93 1188.57 93.34 C 1113.83 83.76 1038.27 80.55 963.00 83.98 C 803.60 91.26 645.68 128.06 499.14 191.14 C 404.00 232.17 313.83 284.70 231.11 347.09 C 225.57 351.33 219.79 355.28 214.64 360.00 C 219.01 366.32 224.29 371.92 229.09 377.91 C 290.51 452.15 351.91 526.41 413.36 600.64 C 417.89 606.22 422.80 611.51 426.90 617.43 C 410.53 621.99 394.06 626.20 377.66 630.66 C 364.84 633.87 352.22 637.88 339.30 640.67 C 333.87 635.05 329.27 628.73 324.20 622.80 C 251.71 535.27 179.31 447.66 106.85 360.11 C 103.69 356.43 100.58 352.70 97.72 348.78 C 103.23 342.87 109.93 338.29 116.01 333.02 C 140.57 312.46 165.55 292.39 191.34 273.38 C 248.76 230.92 309.42 192.83 372.70 159.72 C 524.75 80.10 691.63 29.16 862.04 9.12 C 906.40 3.89 951.01 1.16 995.65 0.00 Z" />
<path fill="#040404" opacity="1.00" d=" M 936.74 224.73 C 942.78 220.17 950.63 218.80 958.04 218.80 C 965.55 218.77 973.09 222.49 977.11 228.93 C 980.31 233.85 980.83 239.87 980.95 245.58 C 975.48 246.32 969.98 246.89 964.46 246.93 C 963.72 242.87 964.06 238.12 961.17 234.83 C 956.37 230.51 946.65 234.11 947.23 241.09 C 947.45 249.50 948.62 257.87 949.70 266.21 C 953.02 263.60 956.28 260.53 960.54 259.57 C 967.48 257.92 975.77 258.65 980.97 264.04 C 986.19 269.27 986.73 277.06 987.36 284.01 C 988.30 293.83 989.80 304.65 984.49 313.56 C 980.68 320.06 973.03 322.83 965.93 323.77 C 958.30 324.76 949.66 324.68 943.32 319.71 C 937.29 314.92 935.33 306.93 934.41 299.64 C 933.17 288.11 932.11 276.55 930.92 265.02 C 930.24 257.34 928.91 249.69 929.14 241.96 C 929.34 235.56 931.45 228.73 936.74 224.73 M 957.43 274.44 C 954.46 275.85 950.35 278.04 951.10 281.96 C 951.85 289.44 952.20 297.02 953.71 304.39 C 955.45 311.81 967.64 311.70 969.90 304.77 C 971.01 300.37 969.96 295.81 969.65 291.37 C 969.05 286.79 969.18 281.99 967.40 277.66 C 965.81 273.89 960.93 272.59 957.43 274.44 Z" />
<path fill="#040404" opacity="1.00" d=" M 858.33 233.22 C 870.60 231.11 882.94 229.50 895.21 227.42 C 898.09 226.94 901.01 226.72 903.94 226.63 C 904.73 231.32 905.22 236.08 905.14 240.85 C 895.53 242.48 885.83 243.60 876.23 245.31 C 876.56 252.51 877.68 259.64 878.20 266.83 C 881.08 264.07 884.04 261.03 888.06 260.02 C 894.83 258.18 903.17 258.22 908.38 263.62 C 914.89 270.29 915.71 280.10 917.15 288.84 C 918.73 299.06 921.18 310.07 917.01 319.99 C 914.17 326.89 907.02 330.70 900.01 332.00 C 891.38 333.72 881.29 333.77 874.20 327.83 C 867.85 322.35 866.58 313.45 866.10 305.55 C 871.70 304.57 877.33 303.70 883.00 303.23 C 883.82 307.23 883.99 311.47 885.81 315.18 C 889.33 321.33 900.46 319.09 901.19 311.96 C 901.91 305.82 900.06 299.76 899.33 293.71 C 898.33 288.45 898.33 282.90 896.18 277.93 C 894.32 273.83 888.83 273.10 885.19 275.12 C 881.73 276.71 881.10 281.04 878.35 283.30 C 874.05 284.87 869.39 284.91 864.89 285.32 C 863.43 275.83 862.71 266.25 861.42 256.74 C 860.55 248.88 858.95 241.11 858.33 233.22 Z" />
<path fill="#040404" opacity="1.00" d=" M 810.08 241.00 C 817.46 239.60 826.02 239.84 831.92 245.09 C 837.11 249.67 839.40 256.51 840.85 263.07 C 843.97 277.97 847.00 292.90 850.16 307.80 C 851.86 315.68 853.46 324.37 849.89 331.99 C 846.73 338.92 839.24 342.40 832.24 344.18 C 824.14 346.32 814.57 345.78 808.13 339.86 C 802.73 335.22 800.82 327.99 800.02 321.19 C 805.36 319.70 810.80 318.45 816.35 318.10 C 817.42 321.93 817.62 326.42 820.53 329.43 C 825.62 333.58 835.35 329.03 834.03 322.03 C 832.94 313.60 830.78 305.34 829.00 297.04 C 825.89 300.30 822.76 303.99 818.23 305.22 C 811.25 307.32 802.62 307.32 797.13 301.87 C 791.40 296.46 790.74 288.16 789.12 280.91 C 787.35 271.96 785.33 262.06 789.53 253.47 C 793.38 245.79 802.09 242.41 810.08 241.00 M 810.39 255.46 C 806.19 256.41 803.80 260.89 804.74 264.98 C 805.94 271.99 807.17 279.05 809.24 285.86 C 810.42 290.06 815.45 292.51 819.39 290.38 C 822.44 288.73 826.85 286.20 825.98 282.10 C 825.29 277.31 823.96 272.66 823.12 267.91 C 822.31 264.33 821.91 260.41 819.59 257.42 C 817.43 254.68 813.47 254.54 810.39 255.46 Z" />
<path fill="#040404" opacity="1.00" d=" M 746.86 255.94 C 749.58 254.40 752.76 254.05 755.78 253.40 C 762.06 276.91 767.73 300.58 773.88 324.12 C 776.32 334.07 779.18 343.93 781.26 353.96 C 775.90 355.80 770.39 357.11 764.86 358.27 C 763.42 354.42 762.42 350.43 761.50 346.43 C 755.85 324.32 750.35 302.18 744.60 280.10 C 739.71 281.05 734.92 282.39 730.05 283.35 C 729.07 280.36 728.35 277.29 727.88 274.18 C 732.13 270.01 736.90 266.37 740.86 261.88 C 742.78 259.83 744.50 257.52 746.86 255.94 Z" />
<path fill="#040404" opacity="1.00" d=" M 635.71 290.71 C 642.32 285.63 650.66 282.62 659.02 282.72 C 666.08 282.74 672.97 286.08 677.46 291.50 C 681.83 296.67 683.91 303.26 685.60 309.69 C 679.71 311.78 673.79 313.76 667.79 315.53 C 665.27 310.84 664.78 304.99 660.83 301.15 C 655.71 296.05 644.65 300.41 645.56 307.98 C 645.89 312.19 647.55 316.14 648.87 320.12 C 653.70 334.35 658.31 348.65 663.08 362.90 C 664.27 366.49 666.70 370.64 670.97 370.71 C 675.38 370.67 681.10 368.81 682.12 363.92 C 682.63 357.64 678.71 352.16 677.82 346.10 C 678.35 344.79 680.01 344.69 681.13 344.11 C 685.91 342.46 690.70 340.80 695.68 339.85 C 698.48 347.78 702.18 356.06 700.55 364.66 C 699.16 372.76 693.03 379.36 685.72 382.72 C 677.92 386.31 668.80 388.17 660.43 385.56 C 653.09 383.31 647.53 377.05 645.12 369.89 C 640.30 355.66 635.64 341.37 630.88 327.12 C 629.17 321.95 627.12 316.82 626.61 311.36 C 625.92 303.52 629.43 295.47 635.71 290.71 Z" />
<path fill="#040404" opacity="1.00" d=" M 588.68 307.12 C 594.52 304.49 600.48 302.13 606.57 300.15 C 606.94 315.76 606.45 331.39 606.99 347.00 C 607.28 353.38 606.16 359.94 607.90 366.18 C 612.44 378.83 618.14 391.07 622.32 403.85 C 616.52 406.46 610.62 408.90 604.52 410.71 C 599.93 398.89 595.28 387.09 590.72 375.26 C 588.60 369.54 583.74 365.60 579.83 361.14 C 568.62 348.68 557.02 336.54 546.00 323.91 C 551.81 321.14 557.86 318.90 563.96 316.87 C 573.28 326.89 581.56 337.83 590.77 347.95 C 590.31 334.33 588.64 320.76 588.68 307.12 Z" />
<path fill="#040404" opacity="1.00" d=" M 513.34 338.30 C 518.46 335.77 523.62 333.30 528.93 331.18 C 542.70 359.91 555.53 389.11 569.15 417.92 C 570.08 420.01 571.24 422.11 571.42 424.45 C 566.78 426.84 562.04 429.16 557.09 430.82 C 555.28 430.16 553.98 428.66 552.61 427.39 C 541.19 415.80 529.38 404.63 517.92 393.10 C 515.02 390.22 512.09 387.37 508.92 384.81 C 516.88 403.82 526.25 422.23 534.43 441.15 C 529.61 444.23 524.26 446.31 518.98 448.47 C 510.70 432.00 503.50 415.01 495.61 398.35 C 489.22 383.98 482.08 369.94 476.14 355.39 C 481.37 352.86 486.62 350.34 492.02 348.18 C 502.39 357.38 512.12 367.28 522.23 376.76 C 526.88 381.00 531.03 385.84 536.26 389.41 C 533.88 382.29 530.23 375.70 527.22 368.84 C 522.67 358.63 517.63 348.63 513.34 338.30 Z" />
<path fill="#040404" opacity="1.00" d=" M 718.12 354.02 C 723.76 351.72 729.65 350.11 735.63 349.04 C 737.37 354.23 738.91 359.50 740.07 364.87 C 734.35 366.90 728.53 368.67 722.56 369.81 C 720.94 364.58 719.44 359.32 718.12 354.02 Z" />
<path fill="#040404" opacity="1.00" d=" M 1519.20 378.25 C 1538.28 373.64 1558.40 372.36 1577.71 376.35 C 1593.07 379.41 1607.62 385.84 1620.78 394.26 C 1633.15 402.21 1643.96 412.65 1652.00 424.99 C 1661.47 439.41 1667.71 455.65 1673.01 472.00 C 1679.71 493.15 1685.25 514.65 1690.90 536.11 C 1695.76 554.72 1699.76 573.58 1702.00 592.70 L 1702.00 616.30 C 1699.95 627.62 1697.41 638.96 1692.43 649.39 C 1684.35 666.77 1672.60 682.62 1657.57 694.60 C 1646.47 703.60 1633.68 710.36 1620.29 715.24 C 1600.90 722.20 1580.18 725.95 1559.56 724.60 C 1544.44 723.71 1529.58 719.67 1515.94 713.13 C 1500.78 705.94 1486.84 695.81 1476.30 682.67 C 1468.12 672.60 1461.91 661.08 1456.95 649.13 C 1449.14 630.45 1444.02 610.82 1438.69 591.34 C 1432.97 569.75 1426.78 548.25 1422.79 526.25 C 1419.31 506.73 1417.93 486.34 1423.02 466.98 C 1430.09 440.05 1447.20 415.96 1469.86 399.88 C 1484.63 389.41 1501.70 382.60 1519.20 378.25 M 1538.35 442.39 C 1519.27 445.45 1501.09 458.59 1495.53 477.60 C 1492.64 487.15 1493.42 497.31 1494.82 507.04 C 1496.84 520.72 1500.09 534.18 1503.47 547.57 C 1508.74 567.91 1514.05 588.26 1520.82 608.16 C 1525.19 620.49 1529.80 633.35 1539.07 642.93 C 1551.90 655.81 1571.88 659.95 1589.18 655.16 C 1605.14 651.22 1619.16 639.41 1624.88 623.87 C 1628.67 614.21 1628.51 603.58 1627.25 593.44 C 1625.58 580.88 1622.73 568.51 1619.74 556.21 C 1615.04 537.57 1610.19 518.95 1604.39 500.62 C 1599.70 486.51 1595.18 471.90 1586.16 459.86 C 1575.24 445.49 1555.89 438.91 1538.35 442.39 Z" />
<path fill="#040404" opacity="1.00" d=" M 1248.60 453.62 C 1264.44 449.35 1281.06 447.82 1297.39 449.63 C 1314.52 451.61 1331.30 457.61 1345.41 467.62 C 1359.71 477.65 1371.10 491.61 1378.53 507.38 C 1385.99 523.13 1390.27 540.55 1389.83 558.03 C 1389.61 577.46 1382.93 596.71 1371.15 612.15 C 1365.76 619.73 1358.61 625.70 1351.79 631.92 C 1384.20 667.92 1417.04 703.56 1449.61 739.42 C 1454.12 744.55 1459.12 749.27 1463.18 754.79 C 1443.48 760.47 1423.57 765.43 1403.80 770.84 C 1396.28 772.73 1388.88 775.08 1381.30 776.71 C 1351.67 743.32 1322.61 709.41 1293.20 675.82 C 1289.52 671.70 1286.21 667.23 1282.04 663.59 C 1268.91 666.94 1255.77 670.35 1242.77 674.16 C 1244.29 682.81 1247.16 691.15 1249.27 699.67 C 1255.94 724.65 1262.62 749.63 1269.32 774.61 C 1271.77 784.67 1275.11 794.52 1277.03 804.71 C 1253.42 811.10 1229.82 817.56 1206.13 823.63 C 1176.99 715.70 1148.35 607.62 1119.32 499.65 C 1118.31 496.17 1117.46 492.65 1116.74 489.10 C 1135.32 483.65 1154.14 479.03 1172.81 473.89 C 1198.07 467.14 1223.33 460.35 1248.60 453.62 M 1262.79 518.84 C 1243.59 523.96 1224.39 529.05 1205.21 534.27 C 1206.72 541.65 1209.01 548.83 1210.86 556.13 C 1216.03 575.09 1220.84 594.15 1226.20 613.06 C 1233.19 611.84 1239.93 609.57 1246.79 607.85 C 1259.15 604.49 1271.54 601.29 1283.88 597.88 C 1296.26 594.41 1308.03 586.38 1313.26 574.30 C 1321.27 555.94 1313.67 531.80 1295.95 522.07 C 1285.92 516.49 1273.74 516.08 1262.79 518.84 Z" />
<path fill="#040404" opacity="1.00" d=" M 961.41 530.47 C 991.64 522.39 1025.65 524.53 1052.59 541.40 C 1081.99 559.37 1099.68 593.01 1101.81 626.96 C 1103.57 651.21 1095.29 675.94 1079.24 694.20 C 1074.71 699.71 1069.05 704.07 1063.88 708.93 C 1096.12 744.74 1128.78 780.18 1161.18 815.85 C 1165.88 821.19 1171.05 826.13 1175.35 831.83 C 1155.62 837.51 1135.68 842.47 1115.88 847.90 C 1108.35 849.76 1100.97 852.25 1093.33 853.71 C 1069.03 826.32 1045.20 798.50 1021.08 770.95 C 1013.49 762.19 1005.79 753.54 998.33 744.68 C 996.55 742.73 994.40 739.91 991.43 741.27 C 979.24 744.57 966.97 747.61 954.86 751.19 C 956.14 758.47 958.52 765.49 960.30 772.65 C 967.14 798.16 973.96 823.68 980.77 849.20 C 983.43 860.08 987.09 870.72 989.10 881.75 C 965.49 888.13 941.91 894.67 918.19 900.63 C 892.78 806.05 867.54 711.41 842.22 616.80 C 837.82 599.89 832.91 583.10 828.85 566.10 C 872.95 553.93 917.24 542.40 961.41 530.47 M 963.80 598.84 C 948.31 603.04 932.76 607.03 917.31 611.35 C 918.78 618.39 920.95 625.25 922.72 632.21 C 927.97 651.47 932.91 670.81 938.28 690.04 C 944.24 689.14 949.97 687.24 955.79 685.72 C 967.86 682.50 979.93 679.23 992.01 676.04 C 1003.26 673.34 1014.36 667.88 1021.32 658.34 C 1032.57 643.54 1029.97 621.42 1018.42 607.55 C 1011.05 598.70 999.42 594.05 988.02 594.21 C 979.70 594.06 971.74 596.77 963.80 598.84 Z" />
<path fill="#040404" opacity="1.00" d=" M 671.86 607.87 C 674.31 607.27 677.64 605.90 679.12 608.87 C 738.73 693.92 798.37 778.96 857.99 864.00 C 868.21 878.93 879.08 893.43 888.93 908.60 C 864.29 915.24 839.65 921.91 814.97 928.37 C 810.23 922.82 806.80 916.34 802.61 910.39 C 794.95 898.96 787.59 887.32 779.78 875.99 C 759.15 880.96 738.76 886.92 718.21 892.24 C 701.89 896.69 685.48 900.85 669.20 905.44 C 667.52 915.57 667.67 925.89 666.71 936.11 C 665.85 946.91 665.36 957.74 664.41 968.54 C 639.73 975.59 614.82 981.88 590.05 988.64 C 599.15 881.40 608.90 774.21 618.10 666.98 C 619.53 651.76 620.61 636.51 622.32 621.32 C 638.77 616.60 655.40 612.57 671.86 607.87 M 681.22 725.69 C 678.34 763.35 675.50 801.03 673.02 838.72 C 696.62 832.51 720.21 826.21 743.75 819.78 C 730.50 799.25 716.83 778.99 703.36 758.61 C 695.92 747.67 689.01 736.37 681.22 725.69 Z" />
<path fill="#040404" opacity="1.00" d=" M 383.20 685.23 C 400.96 680.38 419.67 678.48 437.96 681.08 C 455.80 683.62 473.04 691.34 486.14 703.83 C 500.14 716.92 509.14 734.60 513.97 752.98 C 518.72 770.54 517.38 789.63 510.46 806.44 C 507.05 815.02 501.84 822.69 496.12 829.87 C 509.14 833.77 521.71 839.88 531.59 849.38 C 542.38 859.45 549.98 872.59 554.47 886.58 C 560.18 903.79 562.03 922.34 559.30 940.29 C 556.69 956.31 549.52 971.57 538.73 983.70 C 529.24 994.54 517.21 1002.93 504.26 1009.13 C 493.79 1014.16 482.62 1017.53 471.40 1020.40 C 426.93 1032.19 382.55 1044.35 338.04 1055.95 C 331.69 1034.01 326.18 1011.83 320.15 989.80 C 298.53 909.09 276.97 828.36 255.35 747.65 C 253.25 738.83 250.11 730.24 248.75 721.26 C 293.53 709.13 338.39 697.25 383.20 685.23 M 395.85 750.87 C 376.27 756.05 356.72 761.36 337.14 766.52 C 337.68 769.61 338.35 772.66 339.22 775.68 C 344.66 795.28 349.58 815.02 355.14 834.59 C 370.28 830.73 385.32 826.49 400.44 822.52 C 410.26 819.78 420.62 817.94 429.35 812.35 C 437.73 807.07 444.22 798.11 444.75 787.99 C 445.51 774.88 440.16 760.52 428.57 753.48 C 418.78 747.52 406.57 747.95 395.85 750.87 M 417.43 887.48 C 402.52 891.74 387.32 895.05 372.58 899.85 C 374.81 909.30 377.57 918.61 380.01 928.00 C 384.10 942.77 387.69 957.68 392.04 972.37 C 408.35 968.61 424.39 963.77 440.60 959.61 C 451.50 956.46 463.35 954.76 472.47 947.49 C 480.98 941.14 485.94 930.58 485.75 920.00 C 485.58 909.99 482.32 899.84 475.86 892.11 C 470.26 885.36 461.74 881.32 453.03 880.80 C 440.75 879.82 429.16 884.71 417.43 887.48 Z" />
<path fill="#040404" opacity="1.00" d=" M 100.01 758.11 C 122.71 752.56 146.56 750.13 169.71 754.27 C 186.01 757.08 201.65 763.18 215.91 771.50 C 214.31 775.23 212.42 778.84 210.26 782.28 C 200.86 797.68 192.25 813.55 182.72 828.86 C 175.81 825.73 169.13 821.90 161.65 820.27 C 143.26 815.57 123.98 818.74 106.09 824.04 C 95.38 827.35 84.90 832.98 78.09 842.13 C 72.65 849.32 70.30 858.67 71.59 867.59 C 72.78 876.44 76.61 885.64 84.36 890.66 C 93.37 896.49 104.62 897.09 115.02 896.14 C 131.97 894.37 148.89 892.29 165.85 890.59 C 181.88 889.00 198.40 889.27 213.90 894.08 C 228.31 898.67 241.78 906.80 251.74 918.28 C 263.70 931.92 271.04 949.01 275.55 966.43 C 280.13 983.94 280.33 1002.73 275.11 1020.12 C 270.11 1037.32 259.97 1052.76 247.07 1065.08 C 227.33 1083.98 201.80 1095.75 175.56 1102.53 C 158.40 1106.98 140.82 1110.15 123.07 1110.70 C 94.23 1111.77 64.86 1104.22 40.76 1088.20 C 46.19 1077.95 52.34 1068.11 58.02 1058.01 C 63.74 1048.64 68.49 1038.67 74.85 1029.71 C 83.18 1033.94 91.52 1038.43 100.78 1040.31 C 122.08 1045.32 144.41 1042.32 165.16 1036.22 C 177.41 1032.47 189.79 1027.18 198.67 1017.63 C 205.04 1010.85 208.27 1001.27 207.01 992.02 C 205.62 980.91 200.41 969.36 190.39 963.56 C 182.81 959.03 173.61 959.33 165.13 960.16 C 148.70 961.99 132.27 963.81 115.84 965.62 C 94.26 967.65 71.52 966.92 51.66 957.31 C 35.63 950.01 22.73 936.86 14.52 921.39 C 6.82 907.42 2.99 891.81 0.00 876.26 L 0.00 852.73 C 0.87 848.40 1.84 844.09 2.88 839.81 C 6.78 823.91 15.23 809.31 26.43 797.44 C 45.91 776.79 72.74 764.61 100.01 758.11 Z" />
<path fill="#040404" opacity="1.00" d=" M 1186.42 878.45 C 1192.11 877.67 1198.00 879.94 1202.04 883.96 C 1207.71 889.83 1208.91 899.62 1204.51 906.57 C 1199.46 915.21 1186.84 918.08 1178.55 912.49 C 1172.49 908.71 1169.30 901.21 1170.32 894.20 C 1171.31 886.10 1178.32 879.31 1186.42 878.45 M 1184.36 882.37 C 1177.44 884.37 1172.61 891.85 1173.78 898.99 C 1174.75 906.93 1182.87 913.21 1190.83 911.85 C 1198.78 910.88 1204.94 902.64 1203.48 894.74 C 1202.42 886.05 1192.76 879.60 1184.36 882.37 Z" />
<path fill="#040404" opacity="1.00" d=" M 1178.23 889.18 C 1182.98 887.80 1188.04 885.36 1193.04 886.82 C 1196.21 888.06 1196.14 891.69 1195.43 894.47 C 1194.65 896.53 1196.52 897.94 1197.52 899.51 C 1198.82 901.03 1198.93 903.09 1199.33 904.98 C 1197.76 905.17 1196.22 905.38 1194.67 905.59 C 1193.72 903.72 1192.75 901.87 1191.77 900.02 C 1190.25 900.06 1188.74 900.12 1187.25 900.19 C 1187.67 902.72 1188.15 905.25 1188.59 907.80 C 1186.83 908.10 1185.09 908.41 1183.35 908.73 C 1181.57 902.23 1179.75 895.74 1178.23 889.18 M 1184.70 890.91 C 1185.10 892.93 1185.54 894.96 1186.02 897.00 C 1187.60 896.26 1189.18 895.52 1190.78 894.78 C 1190.71 893.58 1190.66 892.40 1190.62 891.23 C 1188.69 890.55 1186.67 890.51 1184.70 890.91 Z" />
<path fill="#5cab45" opacity="1.00" d=" M 1125.34 894.34 C 1134.83 891.94 1144.18 888.94 1153.79 887.00 C 1151.39 902.99 1148.37 918.89 1145.73 934.86 C 1129.34 1030.47 1112.96 1126.09 1096.58 1221.71 C 1080.87 1313.81 1064.90 1405.87 1049.35 1498.00 L 1048.62 1498.00 C 1046.56 1495.51 1044.65 1492.92 1042.62 1490.43 C 917.96 1339.74 793.30 1189.06 668.64 1038.36 C 663.83 1032.38 658.59 1026.74 654.17 1020.45 C 683.38 1012.75 712.48 1004.54 741.79 997.21 C 751.16 1007.56 759.62 1018.71 768.68 1029.34 C 833.87 1108.16 899.08 1186.95 964.26 1265.76 C 975.59 1279.16 986.38 1293.02 997.99 1306.17 C 1003.42 1277.18 1007.97 1248.03 1013.13 1218.99 C 1029.29 1124.52 1045.48 1030.05 1061.68 935.59 C 1063.27 927.17 1064.18 918.63 1066.26 910.31 C 1085.86 904.66 1105.67 899.74 1125.34 894.34 Z" />
</g>
</svg>
