<svg xmlns="http://www.w3.org/2000/svg" viewBox="0 0 32 32">
  <rect width="32" height="32" rx="6" fill="#0a0f1a"/>
  <!-- Firewall shield -->
  <path d="M16 3 L28 7 L28 17 Q28 25 16 30 Q4 25 4 17 L4 7 Z" fill="#1e3a5f"/>
  <path d="M16 3 L28 7 L28 17 Q28 25 16 30 Q4 25 4 17 L4 7 Z" fill="none" stroke="#3b82f6" stroke-width="1.5"/>
  <!-- Fire/flame inside -->
  <path d="M16 22 Q12 18 14 14 Q15 17 16 16 Q17 12 20 10 Q18 15 19 17 Q21 14 21 18 Q21 22 16 22 Z" fill="#f97316"/>
  <path d="M16 22 Q13 19 15 16 Q15.5 18 16 17 Q17 15 18 14 Q17 17 18 18 Q19 16 19 19 Q19 22 16 22 Z" fill="#fbbf24"/>
</svg>
