<svg xmlns="http://www.w3.org/2000/svg" viewBox="0 0 32 32">
  <rect width="32" height="32" rx="6" fill="#02020f"/>
  <!-- DNA double helix icon -->
  <path d="M10 4 Q16 8 22 4" stroke="#22c55e" stroke-width="2" fill="none" stroke-linecap="round"/>
  <path d="M10 4 Q16 0 22 4" stroke="#14b8a6" stroke-width="2" fill="none" stroke-linecap="round"/>
  <path d="M10 11 Q16 15 22 11" stroke="#22c55e" stroke-width="2" fill="none" stroke-linecap="round"/>
  <path d="M10 11 Q16 7 22 11" stroke="#14b8a6" stroke-width="2" fill="none" stroke-linecap="round"/>
  <path d="M10 18 Q16 22 22 18" stroke="#22c55e" stroke-width="2" fill="none" stroke-linecap="round"/>
  <path d="M10 18 Q16 14 22 18" stroke="#14b8a6" stroke-width="2" fill="none" stroke-linecap="round"/>
  <path d="M10 25 Q16 29 22 25" stroke="#22c55e" stroke-width="2" fill="none" stroke-linecap="round"/>
  <path d="M10 25 Q16 21 22 25" stroke="#14b8a6" stroke-width="2" fill="none" stroke-linecap="round"/>
  <line x1="12" y1="7.5" x2="20" y2="7.5" stroke="#64748b" stroke-width="1.5"/>
  <line x1="12" y1="14.5" x2="20" y2="14.5" stroke="#64748b" stroke-width="1.5"/>
  <line x1="12" y1="21.5" x2="20" y2="21.5" stroke="#64748b" stroke-width="1.5"/>
</svg>
