<svg xmlns="http://www.w3.org/2000/svg" viewBox="0 0 512 512" width="512" height="512">
  <defs>
    <filter id="glow" x="-50%" y="-50%" width="200%" height="200%">
      <feGaussianBlur stdDeviation="12" result="blur1"/>
      <feGaussianBlur stdDeviation="24" result="blur2"/>
      <feGaussianBlur stdDeviation="6"  result="blur3"/>
      <feMerge>
        <feMergeNode in="blur2"/>
        <feMergeNode in="blur1"/>
        <feMergeNode in="blur3"/>
        <feMergeNode in="SourceGraphic"/>
      </feMerge>
    </filter>
    <linearGradient id="bladeGrad" x1="0%" y1="0%" x2="100%" y2="100%">
      <stop offset="0%"   stop-color="#ff6600"/>
      <stop offset="40%"  stop-color="#ff2200"/>
      <stop offset="100%" stop-color="#cc0011"/>
    </linearGradient>
    <linearGradient id="guardGrad" x1="0%" y1="0%" x2="100%" y2="100%">
      <stop offset="0%"   stop-color="#ff4400"/>
      <stop offset="100%" stop-color="#880000"/>
    </linearGradient>
  </defs>

  <!-- dark background -->
  <rect width="512" height="512" fill="#0a0005"/>

  <!-- outer ambient glow -->
  <path d="M491.313 21.406C331.102 120.193 194.688 226.866 70 350.906c29.11-21.616 63.387-37.86 103.875-49.28 40.95-60.157 100.923-106.7 170.844-130.157-23.522 69.8-70.747 130.135-131.314 171.25-9.76 38.353-26.835 69.38-48 96.374C289.153 314.63 403.748 181.7 491.312 21.406zM132.656 345.5v.344c-30.526 52.844-71.12 87.318-115.437 115.47-4.89 28.29 9.777 39.067 34.75 34.56 30.594-51.69 68.69-88.052 115.436-115.468 0-19.56-12.363-34.906-34.75-34.906z"
        fill="#ff3300" opacity="0.18" filter="url(#glow)"/>

  <!-- main blade -->
  <path d="M491.313 21.406C331.102 120.193 194.688 226.866 70 350.906c29.11-21.616 63.387-37.86 103.875-49.28 40.95-60.157 100.923-106.7 170.844-130.157-23.522 69.8-70.747 130.135-131.314 171.25-9.76 38.353-26.835 69.38-48 96.374C289.153 314.63 403.748 181.7 491.312 21.406zM132.656 345.5v.344c-30.526 52.844-71.12 87.318-115.437 115.47-4.89 28.29 9.777 39.067 34.75 34.56 30.594-51.69 68.69-88.052 115.436-115.468 0-19.56-12.363-34.906-34.75-34.906z"
        fill="url(#bladeGrad)" filter="url(#glow)"/>

  <!-- bright core -->
  <path d="M491.313 21.406C331.102 120.193 194.688 226.866 70 350.906c29.11-21.616 63.387-37.86 103.875-49.28 40.95-60.157 100.923-106.7 170.844-130.157-23.522 69.8-70.747 130.135-131.314 171.25-9.76 38.353-26.835 69.38-48 96.374C289.153 314.63 403.748 181.7 491.312 21.406zM132.656 345.5v.344c-30.526 52.844-71.12 87.318-115.437 115.47-4.89 28.29 9.777 39.067 34.75 34.56 30.594-51.69 68.69-88.052 115.436-115.468 0-19.56-12.363-34.906-34.75-34.906z"
        fill="#ffcc88" opacity="0.35"/>
</svg>
