<svg xmlns="http://www.w3.org/2000/svg" viewBox="0 0 32 32">
  <rect width="32" height="32" rx="4" fill="#0f1117"/>
  <rect x="10" y="10" width="12" height="12" rx="2" fill="#7c6af7"/>
  <rect x="12" y="12" width="8" height="8" rx="1" fill="#0f1117"/>
  <rect x="14" y="14" width="4" height="4" rx="0.5" fill="#4fc3f7"/>
  <!-- pins left -->
  <rect x="4" y="12" width="5" height="2" rx="1" fill="#4ade80"/>
  <rect x="4" y="16" width="5" height="2" rx="1" fill="#4ade80"/>
  <rect x="4" y="20" width="5" height="2" rx="1" fill="#4ade80"/>
  <!-- pins right -->
  <rect x="23" y="12" width="5" height="2" rx="1" fill="#4ade80"/>
  <rect x="23" y="16" width="5" height="2" rx="1" fill="#4ade80"/>
  <rect x="23" y="20" width="5" height="2" rx="1" fill="#4ade80"/>
  <!-- pins top -->
  <rect x="12" y="4" width="2" height="5" rx="1" fill="#4ade80"/>
  <rect x="16" y="4" width="2" height="5" rx="1" fill="#4ade80"/>
  <rect x="20" y="4" width="2" height="5" rx="1" fill="#4ade80"/>
  <!-- pins bottom -->
  <rect x="12" y="23" width="2" height="5" rx="1" fill="#4ade80"/>
  <rect x="16" y="23" width="2" height="5" rx="1" fill="#4ade80"/>
  <rect x="20" y="23" width="2" height="5" rx="1" fill="#4ade80"/>
</svg>
