<svg xmlns="http://www.w3.org/2000/svg" viewBox="0 0 32 32">
  <rect width="32" height="32" rx="6" fill="#02020f"/>
  <path d="M16 6 C10 6 6 10 6 15 C6 18 7 20 9 22 C9 24 10 26 12 26 L16 26 L16 6Z" fill="none" stroke="#8b5cf6" stroke-width="1.5"/>
  <path d="M16 6 C22 6 26 10 26 15 C26 18 25 20 23 22 C23 24 22 26 20 26 L16 26 L16 6Z" fill="none" stroke="#ec4899" stroke-width="1.5"/>
  <line x1="16" y1="6" x2="16" y2="26" stroke="#6d28d9" stroke-width="1"/>
  <path d="M10 14 C12 12 14 14 12 16" fill="none" stroke="#8b5cf6" stroke-width="1"/>
  <path d="M22 14 C20 12 18 14 20 16" fill="none" stroke="#ec4899" stroke-width="1"/>
</svg>
