<svg xmlns="http://www.w3.org/2000/svg" viewBox="0 0 32 32">
  <rect width="32" height="32" rx="6" fill="#020818"/>
  <!-- Rocket -->
  <path d="M16 2 Q19 6 19 14 L19 22 L16 26 L13 22 L13 14 Q13 6 16 2 Z" fill="#e5e7eb"/>
  <!-- Window -->
  <circle cx="16" cy="12" r="2.5" fill="#3b82f6"/>
  <!-- Fins -->
  <path d="M13 20 L8 26 L13 24 Z" fill="#6b7280"/>
  <path d="M19 20 L24 26 L19 24 Z" fill="#6b7280"/>
  <!-- Flame -->
  <path d="M13 24 Q16 30 19 24" fill="#f97316"/>
  <path d="M14 24 Q16 28 18 24" fill="#fbbf24"/>
  <!-- Stars -->
  <circle cx="5" cy="5" r="1" fill="white"/>
  <circle cx="27" cy="8" r="1" fill="white"/>
  <circle cx="8" cy="14" r="0.8" fill="white"/>
  <circle cx="26" cy="20" r="0.8" fill="white"/>
</svg>
